<svg width="62" height="32" viewBox="0 0 62 32" fill="none" xmlns="http://www.w3.org/2000/svg">
<rect width="62" height="32" rx="16" fill="white"/>
<path d="M22.9315 20L19.6075 11.6H20.8075L24.1915 20H22.9315ZM16.1635 20L19.5475 11.6H20.7475L17.4235 20H16.1635ZM17.7595 17.756V16.7H22.5955V17.756H17.7595ZM26.0857 20V13.34C26.0857 12.708 26.2377 12.232 26.5417 11.912C26.8457 11.584 27.3057 11.42 27.9217 11.42C28.1057 11.42 28.3057 11.452 28.5217 11.516C28.7377 11.572 28.9577 11.652 29.1817 11.756L28.7617 12.632C28.5937 12.552 28.4457 12.496 28.3177 12.464C28.1977 12.424 28.0937 12.404 28.0057 12.404C27.7417 12.404 27.5457 12.492 27.4177 12.668C27.2897 12.836 27.2257 13.1 27.2257 13.46V20H26.0857ZM25.0177 14.948V14H28.8817V14.948H25.0177ZM32.8335 20.144C32.2335 20.144 31.7695 19.992 31.4415 19.688C31.1135 19.376 30.9495 18.932 30.9495 18.356V12.128H32.0895V18.188C32.0895 18.484 32.1615 18.712 32.3055 18.872C32.4575 19.024 32.6735 19.1 32.9535 19.1C33.0335 19.1 33.1215 19.084 33.2175 19.052C33.3135 19.02 33.4295 18.956 33.5655 18.86L33.9975 19.748C33.7895 19.884 33.5895 19.984 33.3975 20.048C33.2135 20.112 33.0255 20.144 32.8335 20.144ZM29.9295 14.984V14H33.7935V14.984H29.9295ZM38.185 20.144C37.601 20.144 37.085 20.012 36.637 19.748C36.189 19.476 35.837 19.104 35.581 18.632C35.325 18.16 35.197 17.616 35.197 17C35.197 16.384 35.325 15.84 35.581 15.368C35.837 14.896 36.189 14.528 36.637 14.264C37.093 13.992 37.613 13.856 38.197 13.856C38.741 13.856 39.221 13.996 39.637 14.276C40.061 14.548 40.389 14.94 40.621 15.452C40.861 15.956 40.981 16.552 40.981 17.24H39.841C39.841 16.728 39.777 16.296 39.649 15.944C39.521 15.592 39.329 15.328 39.073 15.152C38.825 14.968 38.521 14.876 38.161 14.876C37.801 14.876 37.485 14.964 37.213 15.14C36.949 15.308 36.741 15.552 36.589 15.872C36.445 16.184 36.373 16.568 36.373 17.024C36.373 17.448 36.457 17.816 36.625 18.128C36.793 18.432 37.017 18.672 37.297 18.848C37.585 19.016 37.909 19.1 38.269 19.1C38.661 19.1 38.985 19.008 39.241 18.824C39.505 18.64 39.713 18.404 39.865 18.116L40.885 18.584C40.717 18.896 40.505 19.172 40.249 19.412C40.001 19.644 39.701 19.824 39.349 19.952C39.005 20.08 38.617 20.144 38.185 20.144ZM35.941 17.24L35.953 16.304H40.345V17.24H35.941ZM43.2489 16.772C43.2489 16.124 43.3729 15.596 43.6209 15.188C43.8689 14.78 44.1889 14.476 44.5809 14.276C44.9729 14.076 45.3849 13.976 45.8169 13.976V15.056C45.4569 15.056 45.1129 15.112 44.7849 15.224C44.4649 15.328 44.2009 15.504 43.9929 15.752C43.7929 15.992 43.6929 16.32 43.6929 16.736L43.2489 16.772ZM42.5529 20V14H43.6929V20H42.5529Z" fill="#160F29"/>
</svg>
