<svg width="71" height="32" viewBox="0 0 71 32" fill="none" xmlns="http://www.w3.org/2000/svg">
<rect width="71" height="32" rx="16" fill="white"/>
<path d="M18.0533 20V18.932H20.3213C20.8173 18.932 21.2013 18.816 21.4733 18.584C21.7533 18.344 21.8933 18.024 21.8933 17.624C21.8933 17.176 21.7333 16.828 21.4133 16.58C21.1013 16.332 20.6613 16.212 20.0933 16.22H18.0533V15.248L19.5053 15.26C20.2413 15.26 20.8773 15.348 21.4133 15.524C21.9573 15.7 22.3733 15.968 22.6613 16.328C22.9493 16.688 23.0933 17.14 23.0933 17.684C23.0933 18.172 22.9813 18.592 22.7573 18.944C22.5413 19.288 22.2333 19.552 21.8333 19.736C21.4333 19.912 20.9533 20 20.3933 20H18.0533ZM17.3453 20V11.6H18.5093V20H17.3453ZM18.0293 16.256V15.212H20.2373C20.6693 15.212 21.0093 15.096 21.2573 14.864C21.5133 14.632 21.6413 14.312 21.6413 13.904C21.6413 13.48 21.4973 13.152 21.2093 12.92C20.9213 12.688 20.5173 12.576 19.9973 12.584H18.0293V11.612L20.0453 11.588C20.6213 11.588 21.1133 11.68 21.5213 11.864C21.9373 12.04 22.2573 12.3 22.4813 12.644C22.7133 12.988 22.8293 13.412 22.8293 13.916C22.8293 14.364 22.7013 14.76 22.4453 15.104C22.1973 15.448 21.8413 15.716 21.3773 15.908C20.9133 16.1 20.3653 16.196 19.7333 16.196L18.0293 16.256ZM27.5053 20.144C26.9213 20.144 26.4053 20.012 25.9573 19.748C25.5093 19.476 25.1573 19.104 24.9013 18.632C24.6453 18.16 24.5173 17.616 24.5173 17C24.5173 16.384 24.6453 15.84 24.9013 15.368C25.1573 14.896 25.5093 14.528 25.9573 14.264C26.4133 13.992 26.9333 13.856 27.5173 13.856C28.0613 13.856 28.5413 13.996 28.9573 14.276C29.3813 14.548 29.7093 14.94 29.9413 15.452C30.1813 15.956 30.3013 16.552 30.3013 17.24H29.1613C29.1613 16.728 29.0973 16.296 28.9693 15.944C28.8413 15.592 28.6493 15.328 28.3933 15.152C28.1453 14.968 27.8413 14.876 27.4813 14.876C27.1213 14.876 26.8053 14.964 26.5333 15.14C26.2693 15.308 26.0613 15.552 25.9093 15.872C25.7653 16.184 25.6933 16.568 25.6933 17.024C25.6933 17.448 25.7773 17.816 25.9453 18.128C26.1133 18.432 26.3373 18.672 26.6173 18.848C26.9053 19.016 27.2293 19.1 27.5893 19.1C27.9813 19.1 28.3053 19.008 28.5613 18.824C28.8253 18.64 29.0333 18.404 29.1853 18.116L30.2053 18.584C30.0373 18.896 29.8253 19.172 29.5693 19.412C29.3213 19.644 29.0213 19.824 28.6693 19.952C28.3253 20.08 27.9373 20.144 27.5053 20.144ZM25.2613 17.24L25.2733 16.304H29.6653V17.24H25.2613ZM32.4733 20V13.34C32.4733 12.708 32.6253 12.232 32.9293 11.912C33.2333 11.584 33.6933 11.42 34.3093 11.42C34.4933 11.42 34.6933 11.452 34.9093 11.516C35.1253 11.572 35.3453 11.652 35.5693 11.756L35.1493 12.632C34.9813 12.552 34.8333 12.496 34.7053 12.464C34.5853 12.424 34.4813 12.404 34.3933 12.404C34.1293 12.404 33.9333 12.492 33.8053 12.668C33.6773 12.836 33.6133 13.1 33.6133 13.46V20H32.4733ZM31.4053 14.948V14H35.2693V14.948H31.4053ZM39.545 20.144C38.953 20.144 38.425 20.012 37.961 19.748C37.505 19.476 37.145 19.104 36.881 18.632C36.625 18.16 36.497 17.616 36.497 17C36.497 16.384 36.625 15.84 36.881 15.368C37.137 14.896 37.493 14.528 37.949 14.264C38.413 13.992 38.937 13.856 39.521 13.856C40.121 13.856 40.649 13.992 41.105 14.264C41.561 14.528 41.917 14.896 42.173 15.368C42.437 15.84 42.569 16.384 42.569 17C42.569 17.616 42.437 18.16 42.173 18.632C41.917 19.104 41.561 19.476 41.105 19.748C40.657 20.012 40.137 20.144 39.545 20.144ZM39.545 19.064C39.905 19.064 40.221 18.976 40.493 18.8C40.765 18.624 40.977 18.384 41.129 18.08C41.289 17.768 41.369 17.408 41.369 17C41.369 16.6 41.289 16.244 41.129 15.932C40.977 15.62 40.761 15.376 40.481 15.2C40.201 15.024 39.881 14.936 39.521 14.936C39.169 14.936 38.853 15.024 38.573 15.2C38.301 15.376 38.085 15.62 37.925 15.932C37.773 16.236 37.697 16.592 37.697 17C37.697 17.4 37.773 17.756 37.925 18.068C38.085 18.38 38.305 18.624 38.585 18.8C38.865 18.976 39.185 19.064 39.545 19.064ZM44.9591 16.772C44.9591 16.124 45.0831 15.596 45.3311 15.188C45.5791 14.78 45.8991 14.476 46.2911 14.276C46.6831 14.076 47.0951 13.976 47.5271 13.976V15.056C47.1671 15.056 46.8231 15.112 46.4951 15.224C46.1751 15.328 45.9111 15.504 45.7031 15.752C45.5031 15.992 45.4031 16.32 45.4031 16.736L44.9591 16.772ZM44.2631 20V14H45.4031V20H44.2631ZM51.5467 20.144C50.9627 20.144 50.4467 20.012 49.9987 19.748C49.5507 19.476 49.1987 19.104 48.9427 18.632C48.6867 18.16 48.5587 17.616 48.5587 17C48.5587 16.384 48.6867 15.84 48.9427 15.368C49.1987 14.896 49.5507 14.528 49.9987 14.264C50.4547 13.992 50.9747 13.856 51.5587 13.856C52.1027 13.856 52.5827 13.996 52.9987 14.276C53.4227 14.548 53.7507 14.94 53.9827 15.452C54.2227 15.956 54.3427 16.552 54.3427 17.24H53.2027C53.2027 16.728 53.1387 16.296 53.0107 15.944C52.8827 15.592 52.6907 15.328 52.4347 15.152C52.1867 14.968 51.8827 14.876 51.5227 14.876C51.1627 14.876 50.8467 14.964 50.5747 15.14C50.3107 15.308 50.1027 15.552 49.9507 15.872C49.8067 16.184 49.7347 16.568 49.7347 17.024C49.7347 17.448 49.8187 17.816 49.9867 18.128C50.1547 18.432 50.3787 18.672 50.6587 18.848C50.9467 19.016 51.2707 19.1 51.6307 19.1C52.0227 19.1 52.3467 19.008 52.6027 18.824C52.8667 18.64 53.0747 18.404 53.2267 18.116L54.2467 18.584C54.0787 18.896 53.8667 19.172 53.6107 19.412C53.3627 19.644 53.0627 19.824 52.7107 19.952C52.3667 20.08 51.9787 20.144 51.5467 20.144ZM49.3027 17.24L49.3147 16.304H53.7067V17.24H49.3027Z" fill="#160F29"/>
</svg>
