<svg width="24" height="24" viewBox="0 0 24 24" fill="none" xmlns="http://www.w3.org/2000/svg">
<path fill-rule="evenodd" clip-rule="evenodd" d="M4.30201 3.675H1.5V2.325H4.81579L5.46641 2.82022L6.23388 5.59773H22.5L23.1021 6.57776L18.6811 15.305L18.0789 15.675H8.13158L7.48096 15.1798L4.30201 3.675ZM6.6069 6.94773L8.64536 14.325H17.6642L21.4014 6.94773H6.6069Z" fill="#160F29"/>
<path d="M7.5 21C8.32843 21 9 20.3284 9 19.5C9 18.6716 8.32843 18 7.5 18C6.67157 18 6 18.6716 6 19.5C6 20.3284 6.67157 21 7.5 21Z" fill="#160F29"/>
<path d="M19.5 21C20.3284 21 21 20.3284 21 19.5C21 18.6716 20.3284 18 19.5 18C18.6716 18 18 18.6716 18 19.5C18 20.3284 18.6716 21 19.5 21Z" fill="#160F29"/>
</svg>
