<svg width="334" height="64" viewBox="0 0 334 64" fill="none" xmlns="http://www.w3.org/2000/svg">
<path d="M17.7955 2.22168C9.50596 2.22168 2.90552 10.1098 2.90552 32.0006C2.90552 50.8298 6.60818 61.7764 17.7955 61.7764C30.0299 61.7764 31.4779 49.7045 31.4779 39.727L22.6246 39.3225C22.4609 47.613 21.6586 52.9211 18.197 52.9211C14.978 52.9211 13.8531 50.8309 13.8531 32.0016C13.8531 12.5243 16.0215 11.0739 18.197 11.0739C20.7715 11.0739 21.9779 14.6159 21.9779 24.1148L31.3134 23.7919C31.3134 13.3301 29.8652 2.22168 17.7955 2.22168ZM47.5488 2.22273C38.2969 2.22273 32.2594 9.38643 32.2594 32.0016C32.2594 54.6137 38.2969 61.7775 47.5488 61.7775C56.8024 61.7775 62.8393 54.6132 62.8393 32.0016C62.8393 28.8732 62.7196 26.0506 62.496 23.4916C66.0979 35.5094 80.6899 38.4108 80.6899 47.3707C80.6899 49.7046 79.4833 52.9211 76.0211 52.9211C71.5139 52.9211 71.5138 47.2909 71.5138 44.0709V44.0699H62.1783C62.1783 51.9598 64.4344 61.7764 75.6206 61.7764C81.7701 61.7764 86.0299 58.7874 88.2457 54.2696V60.6506H95.9731V18.641H96.1325L103.135 60.6506H108.928L116.012 18.641H116.173V60.6506H125.508V33.0998C125.704 54.8375 131.689 61.7774 140.79 61.7774C149.128 61.7774 154.851 55.9562 155.904 38.2682V60.6506H166.365V37.7144H170.552C178.205 37.7144 182.337 33.5082 183.788 26.773C183.709 28.419 183.664 30.1538 183.664 32.0016C183.664 54.6137 189.7 61.7774 198.952 61.7774C208.21 61.7774 214.246 54.6131 214.246 32.0016C214.246 9.3864 208.21 2.2227 198.952 2.2227C191.575 2.2227 186.245 6.78828 184.387 20.1019C184.256 8.00298 178.072 3.35158 166.365 3.35158H155.904V25.734C154.851 8.04343 149.128 2.2227 140.79 2.2227C131.689 2.2227 125.704 9.1627 125.508 30.9034V3.35158H111.906L106.997 32.7239H106.838L102.168 3.35158H88.2457V16.0338C87.2726 7.73188 83.4744 2.2227 75.2191 2.2227C66.4602 2.2227 61.7997 9.07739 61.7012 17.5601C59.5418 6.19869 54.4385 2.2227 47.5488 2.2227V2.22273ZM214.47 3.3516V60.6506H238.294V51.7974H224.933V3.3516H214.47ZM239.969 3.3516V60.6506H250.43V3.3516H239.969ZM252.19 3.3516V12.2039H261.204V60.6506H271.667V12.2039H280.563L273.76 60.6506H282.531L283.978 47.9347H292.434L293.958 60.6506H303.451H304.02H312.302V25.9629H312.463L323.651 60.6506H331.778V3.3516H323.41V33.6086H323.25L313.673 3.3516H303.451V56.0483L296.935 3.3516H281.806L280.678 11.3835V3.3516H252.19ZM47.5488 11.0739C49.9649 11.0739 51.4115 13.5694 51.4115 25.9629V38.0362C51.4115 50.4292 49.9649 52.9211 47.5488 52.9211C45.1328 52.9211 43.6851 50.4292 43.6851 38.0362V25.9629C43.6851 13.5694 45.1328 11.0739 47.5488 11.0739ZM74.9739 11.0739C79.1595 11.0739 79.1595 16.4671 79.1595 19.6871H88.2457V37.8636C83.5265 27.8715 71.0326 24.2061 71.0326 16.3066C71.0326 13.1677 72.4815 11.0739 74.9739 11.0739ZM140.79 11.0739C143.202 11.0739 144.652 13.5694 144.652 25.9629V38.0362C144.652 50.4292 143.202 52.9211 140.79 52.9211C138.376 52.9211 136.926 50.4292 136.926 38.0362V25.9629C136.926 13.5694 138.376 11.0739 140.79 11.0739ZM198.953 11.0739C201.372 11.0739 202.817 13.5694 202.817 25.9629V38.0362C202.817 50.4292 201.372 52.9211 198.953 52.9211C196.541 52.9211 195.092 50.4292 195.092 38.0362V25.9629C195.092 13.5694 196.541 11.0739 198.953 11.0739ZM166.45 12.2038H167.25C170.711 12.2038 173.931 12.4442 173.931 20.7343C173.931 27.6544 171.597 29.3464 167.332 29.3464H166.45V12.2038ZM288.323 12.2038H288.485L291.542 39.5666H285.029L288.323 12.2038Z" fill="#160F29"/>
</svg>
