<svg width="149" height="80" viewBox="0 0 149 80" fill="none" xmlns="http://www.w3.org/2000/svg">
<path d="M80.5995 39.9381C80.5995 38.0077 80.5889 36.107 80.3013 34.4297H45.4914V51.1973H55.8241C55.8241 52.8732 51.048 56.3187 43.8823 56.3187C35.9992 56.3187 27.0743 50.1125 26.8959 40.1272C26.7097 29.7821 35.6471 23.0163 43.8823 23.3109C50.5702 23.5502 53.1244 25.4706 56.8541 29.1468C56.8541 29.1468 78.556 29.1633 79.1246 29.1633C78.4776 26.6727 76.8751 22.9096 74.1333 19.0139C73.9043 18.6897 73.6706 18.3628 73.4239 18.0385C67.941 10.7303 58.4145 3.31078 43.6125 3.29496C26.2207 3.27058 12.7974 14.914 8.37083 29.1699C8.31818 29.3419 8.2675 29.5139 8.21551 29.6872C8.21551 29.6951 8.21222 29.707 8.20893 29.7136C7.30005 32.9034 6.80908 36.2698 6.80908 39.7463C6.84199 43.0751 7.27372 46.2616 8.05822 49.2682C10.8513 59.6693 18.121 68.2534 27.6923 72.8576C27.7693 72.8938 27.8456 72.9314 27.9246 72.9656C27.9739 72.992 28.0246 73.0111 28.07 73.0342C32.9001 75.2341 38.3257 76.4593 44.0863 76.5047C56.3012 76.4059 67.1051 70.4204 73.7615 61.2603C73.8977 61.0711 80.5995 51.3633 80.5995 39.9381Z" fill="#160F29"/>
<path d="M135.596 61.1011C135.596 61.1011 142.38 52.4254 142.406 40.8736C142.46 18.1871 126.59 3.54569 104.451 3.51274C91.6258 3.49297 79.8011 10.324 73.7457 18.5199C68.3595 25.8117 67.4717 31.8868 67.4717 36.3057C67.2163 41.8035 67.756 44.4034 67.756 44.4034C68.5379 50.1279 70.7571 55.7588 74.1642 60.6701C80.6119 69.9673 91.3178 76.7047 104.578 76.7047C113.379 76.706 119.604 72.5666 120.729 71.9681L123.061 74.6729H145.604L135.596 61.1011ZM121.874 45.1818L119.949 42.8138H97.0804L106.378 56.029C96.7033 57.9278 87.5592 49.6956 87.6928 40.2659C87.8284 30.6313 95.593 23.4753 104.878 23.5379C115.071 23.6025 125.239 34.6686 121.874 45.1818Z" fill="#282531" fill-opacity="0.8"/>
<g opacity="0.5">
<path d="M79.1246 29.173C78.4776 26.6825 76.8751 22.9147 74.1333 19.021C74.0188 18.8556 73.8944 18.6902 73.7766 18.5234C73.7667 18.5366 73.7556 18.5498 73.7457 18.563C70.8532 22.4764 69.2605 26.0333 68.4036 29.1704C73.6884 29.1717 78.8508 29.173 79.1246 29.173Z" fill="#160F29"/>
<path d="M80.5994 39.938C80.5994 38.0077 80.5889 36.107 80.3013 34.4297H67.5342C67.4921 34.4297 67.4724 35.7267 67.4724 36.3357C67.217 41.8341 67.7567 44.4163 67.7567 44.4163C68.5352 50.1368 70.7525 55.7578 74.1537 60.6644C75.6082 58.3775 80.5994 49.798 80.5994 39.938Z" fill="#160F29"/>
</g>
</svg>
