<svg width="281" height="64" viewBox="0 0 281 64" fill="none" xmlns="http://www.w3.org/2000/svg">
<path d="M217.14 2.35893C217.006 2.6126 217.121 3.11648 217.083 3.4666C217.083 4.15873 217.083 4.85087 217.083 5.543C217.888 5.57848 218.718 5.46074 219.507 5.62851C220.191 5.87422 220.135 6.72015 220.146 7.31836C220.141 24.1867 220.154 41.0555 220.139 57.9236C220.14 58.4169 220.085 59.1012 219.471 59.1704C219.037 59.2147 218.598 59.1775 218.161 59.1897C218.161 60.2511 218.161 61.3124 218.161 62.3738C222.907 62.3738 227.652 62.3738 232.397 62.3738C232.397 61.3124 232.397 60.2511 232.397 59.1897C231.565 59.1469 230.71 59.2806 229.893 59.1125C229.224 58.9372 229.159 58.1051 229.18 57.5224C229.18 38.8322 229.18 20.1421 229.18 1.45196C225.167 1.74556 221.154 2.05806 217.14 2.35893ZM251.083 2.35893C250.948 2.6126 251.064 3.11648 251.025 3.4666C251.025 4.15873 251.025 4.85087 251.025 5.543C251.778 5.59801 252.571 5.41729 253.296 5.6671C253.983 5.93026 254.07 6.91162 254.069 7.62712C254.064 24.4297 254.078 41.2334 254.062 58.0354C254.035 58.586 253.754 59.1012 253.183 59.1511C252.819 59.2107 252.451 59.184 252.085 59.1897C252.085 60.2511 252.085 61.3124 252.085 62.3738C256.425 62.3738 260.766 62.3738 265.107 62.3738C265.107 61.3124 265.107 60.2511 265.107 59.1897C264.526 59.1431 263.891 59.311 263.354 59.0353C262.982 58.5585 263.176 57.8749 263.123 57.3063C263.13 47.686 263.109 38.0653 263.133 28.4453C263.174 26.8649 263.227 25.1792 264.02 23.7727C264.24 23.4096 264.492 23.0611 264.818 22.8527C265.823 22.1424 267.214 22.0226 268.343 22.4861C268.844 22.7262 269.098 23.2263 269.265 23.7822C269.644 25.6077 269.449 27.4921 269.499 29.3444C269.494 38.9464 269.509 48.5498 269.491 58.151C269.477 58.6758 269.113 59.1838 268.552 59.1791C268.131 59.2041 267.706 59.1824 267.284 59.1897C267.284 60.2511 267.284 61.3124 267.284 62.3738C271.727 62.3738 276.171 62.3738 280.614 62.3738C280.614 61.3124 280.614 60.2511 280.614 59.1897C279.992 59.1376 279.198 59.3753 278.746 58.8231C278.41 58.0558 278.609 57.1787 278.553 56.3646C278.546 45.6778 278.566 34.9905 278.543 24.3041C278.455 22.3556 278.129 20.2847 276.877 18.7231C276.065 17.7028 274.834 17.0511 273.555 16.7748C271.567 16.3584 269.404 16.3846 267.558 17.3152C266.002 18.0427 264.792 19.3365 263.742 20.6645C263.54 20.8994 263.252 21.4397 263.123 21.4981C263.123 14.816 263.123 8.13399 263.123 1.45196C259.109 1.74556 255.096 2.05806 251.083 2.35893ZM1.54146 2.41682C1.54146 3.45888 1.54146 4.50094 1.54146 5.543C2.29884 5.59852 3.17282 5.35517 3.81457 5.87105C4.07308 6.01722 4.28527 6.32143 4.45915 6.61176C5.19434 7.85155 5.22353 9.36527 5.22082 10.7726C5.21608 25.4166 5.23029 40.061 5.21371 54.7049C5.19804 55.9904 4.96397 57.4093 4.23837 58.4371C3.86731 58.9258 3.29819 59.2519 2.6472 59.1897C2.29769 59.2281 1.79468 59.1127 1.54146 59.2476C1.54146 60.2897 1.54146 61.3317 1.54146 62.3738C5.55472 62.3738 9.56798 62.3738 13.5812 62.3738C13.5812 61.3124 13.5812 60.2511 13.5812 59.1897C12.7619 59.1479 11.9203 59.2791 11.1155 59.1125C10.471 58.8679 10.0917 58.3639 9.82314 57.7292C9.08291 55.8662 9.35948 53.8208 9.30471 51.8644C9.30471 40.1676 9.30471 28.4709 9.30471 16.7741C12.4677 31.9485 15.6518 47.1208 18.8017 62.2966C20.3685 62.2966 21.9353 62.2966 23.502 62.2966C26.652 47.0693 29.836 31.8456 32.999 16.6197C32.9939 29.7328 33.0093 42.8463 32.9913 55.9592C32.9517 56.9847 32.9103 58.1861 32.0936 58.9195C31.7531 59.1442 31.2335 59.2339 30.7837 59.1897C30.148 59.1897 29.5123 59.1897 28.8766 59.1897C28.8766 60.2511 28.8766 61.3124 28.8766 62.3738C34.6429 62.3738 40.4091 62.3738 46.1754 62.3738C46.1754 61.3124 46.1754 60.2511 46.1754 59.1897C45.4053 59.1203 44.5322 59.3835 43.8529 58.9211C43.3057 58.5919 43.1181 57.788 43.0118 57.1518C42.7999 55.3612 42.9419 53.5516 42.9005 51.7525C42.9057 37.4262 42.8903 23.0995 42.9082 8.77354C42.9852 7.75111 42.9922 6.53782 43.8252 5.81316C44.2047 5.55177 44.8207 5.51908 45.3201 5.543C45.6297 5.46594 46.3141 5.76433 46.1754 5.2381C46.1754 4.27838 46.1754 3.31866 46.1754 2.35893C41.353 2.35893 36.5307 2.35893 31.7084 2.35893C29.2512 14.8715 26.7615 27.381 24.2918 39.8923C21.6682 27.3809 19.0234 14.8717 16.413 2.35893C11.4558 2.35893 6.49864 2.35893 1.54146 2.35893V2.41682ZM124.617 2.41682C124.617 3.45888 124.617 4.50094 124.617 5.543C125.512 5.59894 126.445 5.4105 127.312 5.68386C128.122 5.96979 128.186 6.94285 128.255 7.70388C128.307 11.3039 128.262 14.9061 128.277 18.507C128.273 31.6252 128.285 44.744 128.272 57.8618C128.268 58.4824 127.893 59.0604 127.256 59.1125C126.386 59.2604 125.496 59.1602 124.617 59.1897C124.617 60.2511 124.617 61.3124 124.617 62.3738C130.435 62.3738 136.252 62.3738 142.07 62.3738C142.07 61.3124 142.07 60.2511 142.07 59.1897C141.141 59.1394 140.186 59.3051 139.277 59.0739C138.507 58.8296 138.345 57.8726 138.285 57.1329C138.219 54.1983 138.274 51.2609 138.256 48.3253C138.256 43.5202 138.256 38.7152 138.256 33.9101C142.083 33.9101 145.91 33.9101 149.737 33.9101C149.729 41.5311 149.752 49.1528 149.726 56.7734C149.672 57.5625 149.609 58.5655 148.851 58.9967C148.013 59.3491 147.074 59.1265 146.192 59.1897C145.702 59.0751 146.007 59.7578 145.923 60.0504C145.923 60.8248 145.923 61.5993 145.923 62.3738C151.715 62.3738 157.507 62.3738 163.298 62.3738C163.298 61.3124 163.298 60.2511 163.298 59.1897C162.411 59.1292 161.476 59.3374 160.624 59.0238C159.798 58.6326 159.754 57.5717 159.726 56.7662C159.658 53.7273 159.715 50.6859 159.696 47.646C159.701 34.5985 159.686 21.5506 159.704 8.50337C159.756 7.60579 159.66 6.42761 160.39 5.83246C161.188 5.35032 162.172 5.6105 163.056 5.543C163.522 5.62186 163.206 4.9169 163.298 4.62059C163.298 3.86671 163.298 3.11281 163.298 2.35893C157.507 2.35893 151.715 2.35893 145.923 2.35893C145.923 3.42029 145.923 4.48164 145.923 5.543C146.839 5.59226 147.78 5.429 148.677 5.65878C149.462 5.88983 149.653 6.87046 149.704 7.62203C149.78 9.86901 149.716 12.1208 149.737 14.3696C149.737 19.6481 149.737 24.9266 149.737 30.205C145.91 30.205 142.083 30.205 138.256 30.205C138.263 22.7899 138.241 15.3741 138.266 7.95927C138.296 7.2747 138.355 6.44418 138.795 5.94824C139.521 5.32232 140.556 5.6109 141.43 5.543C141.859 5.59514 142.224 5.58418 142.07 5.05285C142.07 4.15487 142.07 3.25691 142.07 2.35893C136.252 2.35893 130.435 2.35893 124.617 2.35893V2.41682ZM101.308 2.39753C100.183 2.49421 99.1768 3.13471 98.4955 3.99921C98.0695 4.49258 97.7056 5.23608 97.6205 5.95156C97.3764 7.4974 98.1597 9.02699 99.2726 10.0428C100.104 10.8597 101.117 11.4786 102.194 11.9304C100.676 13.6359 99.0274 15.2166 97.3975 16.8127C98.0624 17.5232 98.7167 18.2441 99.3816 18.9547C101.316 17.4762 103.209 15.8996 104.773 14.0094C105.985 12.6174 106.973 10.9019 107.176 9.02866C107.367 6.9197 106.382 4.7615 104.737 3.47818C104.258 3.09826 103.584 2.71417 102.924 2.55623C102.402 2.4107 101.849 2.34474 101.308 2.39753ZM240.681 5.46581C239.685 8.39503 238.719 11.3678 237.245 14.0939C236.731 15.0076 236.159 15.9201 235.345 16.5232C234.467 17.2233 233.313 17.3283 232.232 17.2758C231.681 17.1125 231.703 17.523 231.742 17.9512C231.742 18.8646 231.742 19.778 231.742 20.6914C232.763 20.6914 233.784 20.6914 234.805 20.6914C234.812 32.0189 234.792 43.3468 234.815 54.674C234.887 56.5536 234.983 58.5156 235.836 60.2284C236.376 61.2925 237.339 62.1365 238.486 62.5122C240.402 63.1921 242.481 63.1982 244.486 63.0693C246.157 62.8911 247.893 62.3094 248.987 60.9777C249.838 60.0883 250.301 58.8624 250.556 57.6626C251.05 55.4717 250.815 53.2102 250.871 50.9845C250.871 49.9501 250.871 48.9158 250.871 47.8814C249.741 47.8814 248.611 47.8814 247.481 47.8814C247.461 50.67 247.523 53.4614 247.444 56.2479C247.363 57.0815 247.316 58.1397 246.517 58.6108C245.755 59.013 244.568 58.8748 244.187 58.0126C243.675 56.705 243.891 55.2571 243.84 53.8829C243.84 42.8448 243.84 31.8067 243.84 20.7686C246.132 20.7686 248.425 20.7686 250.717 20.7686C250.717 19.6044 250.717 18.4401 250.717 17.2758C248.45 17.2758 246.184 17.2758 243.917 17.2758C243.917 13.3263 243.917 9.37674 243.917 5.42722C242.845 5.42722 241.772 5.42722 240.7 5.42722L240.681 5.46581ZM57.9647 16.5425C55.4736 16.6899 53.082 17.8647 51.3857 19.6788C50.1095 20.96 49.1042 22.4914 48.3569 24.1414C46.5991 27.9261 45.8823 32.106 45.5991 36.2446C45.3078 41.0381 45.4712 45.8793 46.3272 50.6103C46.8878 53.3946 47.7662 56.1712 49.37 58.5359C50.3297 59.8515 51.5015 61.039 52.9562 61.8141C55.0444 62.9675 57.4925 63.2518 59.8447 63.1123C61.8945 62.9813 64.0448 62.6052 65.728 61.351C66.6992 60.579 67.5303 59.6003 68.026 58.4451C69.0829 56.0538 69.2614 53.3866 69.2241 50.8032C69.2145 49.9308 69.1612 49.0599 69.0991 48.1902C67.9947 48.1902 66.8902 48.1902 65.7858 48.1902C65.7918 50.6307 65.8584 53.1016 65.362 55.5039C65.1023 56.5304 64.7241 57.6087 63.8401 58.2634C63.2234 58.6469 62.3689 58.8762 61.5906 58.8771C60.263 58.9378 58.7415 58.8878 57.6565 58.1283C57.0299 57.6307 56.6605 57.0228 56.3755 56.277C55.5374 53.8221 55.482 51.1911 55.3767 48.6226C55.2664 45.3022 55.2908 41.9791 55.2871 38.6573C60.1479 38.6573 65.0088 38.6573 69.8697 38.6573C69.8371 34.6638 69.7261 30.6438 68.9832 26.7102C68.4879 24.2267 67.7551 21.6741 66.1711 19.6687C65.2694 18.575 64.1405 17.676 62.8016 17.1877C61.2619 16.6123 59.5962 16.471 57.9647 16.5425ZM89.037 16.5425C87.031 16.6762 85.0985 17.5955 83.6911 19.0152C82.8716 19.7713 82.1753 20.6272 81.5627 21.5598C81.5627 19.9581 81.5627 18.3565 81.5627 16.7548C77.5812 17.0219 73.6007 17.3174 69.6192 17.5846C69.6192 18.6459 69.6192 19.7073 69.6192 20.7686C70.3347 20.8047 71.0735 20.6917 71.7741 20.8348C72.4657 21.0296 72.6559 21.8726 72.6629 22.544C72.7078 26.4126 72.6693 30.2837 72.6822 34.1533C72.674 42.0355 72.6986 49.9183 72.6698 57.8C72.6714 58.3668 72.484 59.0436 71.8716 59.1295C71.1562 59.2535 70.4202 59.1612 69.6963 59.1897C69.6963 60.2511 69.6963 61.3124 69.6963 62.3738C74.3645 62.3738 79.0328 62.3738 83.701 62.3738C83.701 61.3124 83.701 60.2511 83.701 59.1897C83.1196 59.1431 82.4856 59.311 81.948 59.0353C81.5609 58.4949 81.7767 57.75 81.7168 57.121C81.7237 47.5625 81.7031 38.0036 81.7271 28.4453C81.7653 26.865 81.8234 25.1789 82.6209 23.778C82.8081 23.4183 83.0801 23.1174 83.412 22.8334C83.8569 22.5605 84.4521 22.284 85.0335 22.2464C85.8702 22.1461 86.9915 22.2616 87.4574 22.9299C88.165 23.9604 88.0346 25.2889 88.0931 26.4807C88.088 37.0373 88.1033 47.5952 88.0855 58.151C88.0527 58.6701 87.7432 59.1567 87.207 59.1704C86.7666 59.2146 86.3204 59.1775 85.8778 59.1897C85.8778 60.2511 85.8778 61.3124 85.8778 62.3738C90.3213 62.3738 94.7648 62.3738 99.2082 62.3738C99.2082 61.3124 99.2082 60.2511 99.2082 59.1897C98.5863 59.1376 97.7917 59.3753 97.3397 58.8231C97.0044 58.0558 97.2028 57.1787 97.147 56.3646C97.1404 45.6778 97.1602 34.9905 97.1372 24.3041C97.0486 22.3556 96.7226 20.2847 95.4711 18.7231C94.7425 17.8106 93.6765 17.1768 92.5391 16.8734C91.4087 16.5566 90.2054 16.484 89.037 16.5425ZM110.42 16.5618C107.893 16.7374 105.371 17.8322 103.756 19.8171C102.845 20.8241 102.258 22.1016 101.861 23.402C101.182 25.6658 101.262 28.0758 101.509 30.4013C101.843 33.1158 102.954 35.6981 104.611 37.8638C106.339 40.2078 108.371 42.3246 110.256 44.5529C111.136 45.5648 112.052 46.5565 112.819 47.6081C113.954 49.0755 114.999 50.6873 115.304 52.5544C115.555 54.0512 115.535 55.6314 115.076 57.0867C114.839 57.7426 114.506 58.2786 113.904 58.6656C112.79 59.4256 111.343 59.4072 110.052 59.2699C109.3 59.1386 108.545 58.8368 108.016 58.3474C107.346 57.8271 106.975 57.0772 106.595 56.317C105.52 53.7988 105.366 51.0275 104.908 48.3574C104.845 48.0014 104.215 48.2771 103.909 48.1902C103.074 48.1902 102.239 48.1902 101.404 48.1902C101.404 52.9181 101.404 57.6459 101.404 62.3738C102.387 62.3738 103.369 62.3738 104.352 62.3738C104.535 61.5284 104.798 60.5998 105.482 60.0238C105.889 59.6779 106.218 60.2386 106.495 60.4877C108.154 62.1966 110.541 63.1169 112.916 63.1366C115.286 63.1722 117.752 62.584 119.628 61.0808C120.787 60.1039 121.761 58.8807 122.329 57.454C123.484 54.7674 123.511 51.7537 123.173 48.894C122.899 46.2178 121.824 43.6753 120.282 41.4898C117.932 38.2327 115.022 35.4179 112.438 32.341C111.611 31.2641 110.666 30.1224 110.089 28.8289C109.29 27.0968 109.079 25.1152 109.353 23.236C109.471 22.4244 109.868 21.5914 110.497 21.1739C111.663 20.3667 113.193 20.4716 114.529 20.6924C115.285 20.8598 115.991 21.2703 116.488 21.8107C116.625 22.0173 116.834 22.2256 116.951 22.498C117.843 24.0099 117.926 25.8233 118.156 27.5265C118.272 28.4838 118.407 29.4399 118.51 30.398C119.666 30.398 120.822 30.398 121.978 30.398C121.978 26.024 121.978 21.6499 121.978 17.2758C121.028 17.2758 120.077 17.2758 119.127 17.2758C119.018 18.0425 119.116 18.892 118.761 19.5915C118.473 19.6488 118.308 19.2281 118.065 19.1128C117.562 18.6799 116.904 18.2181 116.273 17.8615C114.496 16.8698 112.462 16.3418 110.42 16.5618ZM175.088 16.5425C172.686 16.689 170.367 17.7829 168.691 19.496C166.449 21.6696 165.094 24.5869 164.191 27.5488C162.912 31.8581 162.566 36.3872 162.595 40.8649C162.645 44.384 162.865 47.9227 163.619 51.3671C164.169 53.8408 165.001 56.3001 166.421 58.4117C167.705 60.2935 169.553 61.8435 171.755 62.5329C173.977 63.276 176.385 63.2534 178.683 62.9327C180.455 62.6647 182.273 62.0568 183.54 60.7474C184.787 59.5831 185.476 57.9626 185.86 56.3165C186.493 53.66 186.411 50.8961 186.222 48.1902C185.118 48.1902 184.013 48.1902 182.909 48.1902C182.946 50.5563 182.973 52.9492 182.531 55.2826C182.328 56.3139 181.94 57.4011 181.175 58.0898C180.013 59.0263 178.415 58.9197 177.011 58.8533C175.943 58.7612 174.852 58.4034 174.198 57.553C173.586 56.7379 173.231 55.6223 173.041 54.5778C172.593 52.3357 172.572 50.0358 172.468 47.7586C172.403 44.7253 172.408 41.6912 172.41 38.6573C177.271 38.6573 182.132 38.6573 186.993 38.6573C186.96 34.6638 186.849 30.6438 186.106 26.7102C185.609 24.2278 184.881 21.6709 183.294 19.6687C182.392 18.575 181.264 17.676 179.925 17.1877C178.387 16.6077 176.718 16.4731 175.088 16.5425ZM200.477 16.5425C197.945 16.6379 195.37 17.3653 193.35 18.9354C192.483 19.7222 191.645 20.5948 191.176 21.6896C190.224 23.707 190.539 26.1413 191.617 28.0364C192.015 28.7309 192.596 29.3432 193.273 29.7805C194.352 30.3951 195.724 30.4462 196.834 29.8687C197.657 29.4911 198.326 28.8228 198.782 28.0437C199.483 26.6545 199.067 24.8875 198.004 23.8148C197.091 22.7302 195.898 21.9384 194.64 21.309C195.749 20.5173 197.147 20.2511 198.478 20.1087C199.676 20.0399 200.964 20.0515 202.048 20.6127C202.529 20.8968 202.89 21.2836 203.066 21.8482C203.559 23.4679 203.331 25.1904 203.386 26.8589C203.386 29.0806 203.386 31.3024 203.386 33.5242C200.726 34.4198 198.06 35.3454 195.559 36.6309C193.524 37.6677 191.661 39.1547 190.489 41.1432C189.109 43.6217 188.742 46.5054 188.623 49.3016C188.5 52.2607 188.587 55.2969 189.539 58.1278C189.989 59.4092 190.661 60.6151 191.685 61.5165C193.024 62.7963 194.985 63.2465 196.806 63.1205C198.613 63.0238 200.402 62.3096 201.707 61.0578C202.72 60.1027 203.557 58.9849 204.195 57.7424C204.478 58.9853 204.803 60.2815 205.582 61.3124C206.284 62.1816 207.305 62.7554 208.417 62.9441C210.265 63.2518 212.249 63.2648 213.996 62.5172C215.35 61.8903 216.234 60.598 216.637 59.1867C217.185 57.36 217.226 55.4293 217.256 53.5356C216.299 53.5356 215.342 53.5356 214.386 53.5356C214.36 54.9883 214.459 56.4716 214.151 57.8971C214.033 58.5125 213.275 58.6435 212.787 58.4178C212.361 57.9868 212.5 57.3049 212.447 56.7507C212.424 46.9607 212.458 37.17 212.43 27.38C212.394 24.7613 211.917 21.9989 210.283 19.881C209.47 18.9097 208.465 18.0869 207.288 17.5864C205.164 16.6494 202.773 16.4594 200.477 16.5425ZM58.6582 20.3827C59.4569 20.3583 60.3396 20.5456 60.6797 21.3327C61.1919 22.3568 61.1954 23.5504 61.2742 24.6741C61.4175 28.227 61.3323 31.7834 61.3551 35.3382C59.3325 35.3382 57.3098 35.3382 55.2871 35.3382C55.3615 31.9051 55.3703 28.4633 55.6968 25.0427C55.8693 23.7598 55.958 22.3818 56.6516 21.2584C57.0551 20.5442 57.865 20.3482 58.6582 20.3827ZM175.781 20.3827C176.58 20.3583 177.463 20.5456 177.803 21.3327C178.448 22.6839 178.341 24.2446 178.445 25.7077C178.515 28.917 178.461 32.1281 178.478 35.3382C176.456 35.3382 174.433 35.3382 172.41 35.3382C172.49 31.4898 172.499 27.6264 172.979 23.8022C173.182 22.6801 173.382 21.3794 174.317 20.6721C174.771 20.4311 175.275 20.3729 175.781 20.3827ZM203.386 52.2234C203.379 53.5985 203.353 55.0642 202.704 56.3033C202.34 57.0329 201.695 57.4913 200.895 57.668C200.171 57.8105 199.293 57.7824 198.686 57.4336C198.2 57.0787 197.951 56.5432 197.799 55.9224C197.44 54.2477 197.505 52.5154 197.472 50.8108C197.529 47.874 197.382 44.8914 198.035 42.0076C198.262 41.0211 198.651 40.0768 199.244 39.2555C199.528 38.8397 200.022 38.3384 200.432 38.043C201.005 37.5348 201.679 37.1348 202.364 36.7107C202.708 36.5164 203.045 36.3097 203.386 36.11C203.386 41.4811 203.386 46.8522 203.386 52.2234ZM175.3 20.1897C174.281 20.1744 173.499 20.952 173.219 21.8686C172.547 23.8982 172.551 26.0553 172.391 28.1402C172.267 30.5735 172.236 33.0201 172.198 35.4539V35.5504H172.295C174.394 35.5504 176.494 35.5504 178.594 35.5504H178.69V35.4539C178.667 32.1191 178.747 28.7774 178.652 25.4386C178.554 23.9893 178.631 22.4099 177.9 21.0581V21.0388C177.624 20.5864 177.195 20.3556 176.725 20.2476C176.256 20.1396 175.756 20.1568 175.3 20.1897ZM175.3 20.3827C175.749 20.3503 176.251 20.3403 176.687 20.4406C177.122 20.5408 177.501 20.7539 177.746 21.1546C178.433 22.4398 178.361 23.9977 178.459 25.4579C178.554 28.7579 178.477 32.0511 178.497 35.3574C176.462 35.3574 174.426 35.3574 172.391 35.3574C172.428 32.9559 172.462 30.5562 172.584 28.1595C172.745 26.0635 172.734 23.9348 173.393 21.9458L173.412 21.9265C173.67 21.0785 174.384 20.369 175.3 20.3827ZM101.308 2.30104C100.151 2.40047 99.1143 3.05836 98.4184 3.94132C97.9749 4.45545 97.5949 5.21908 97.513 5.96754C97.2552 7.63963 98.1601 9.24578 99.3816 10.2902C100.138 11.0164 101.069 11.5463 102.021 11.969C100.532 13.6319 98.9183 15.1708 97.3204 16.7355L97.2626 16.8127L97.3204 16.8706C97.9847 17.5804 98.6389 18.3013 99.3046 19.0126L99.3623 19.0898L99.4394 19.0319C101.376 17.5517 103.281 15.972 104.852 14.0724C106.073 12.6702 107.074 10.9368 107.28 9.03582C107.474 6.89049 106.467 4.70549 104.795 3.40099C104.306 3.01322 103.626 2.61822 102.945 2.45542C102.413 2.30714 101.863 2.24685 101.308 2.30104ZM101.308 2.49401C101.835 2.44262 102.395 2.50561 102.907 2.64839C103.547 2.80148 104.21 3.1833 104.679 3.55537C106.297 4.81751 107.275 6.94393 107.087 9.01653C106.887 10.8621 105.901 12.5556 104.698 13.9374C103.159 15.7973 101.291 17.3571 99.3816 18.8196C98.7646 18.1588 98.1506 17.4939 97.5323 16.832C99.1428 15.2557 100.768 13.6773 102.271 11.9883L102.367 11.8918L102.233 11.8339C101.247 11.4073 100.283 10.8721 99.5165 10.1358C98.3347 9.12544 97.4807 7.57105 97.7249 5.98684C97.8012 5.28927 98.1567 4.53913 98.5725 4.0571C99.2393 3.21105 100.215 2.58796 101.308 2.49401ZM263.123 1.35547C259.109 1.65534 255.096 1.97449 251.083 2.28174H251.025L250.987 2.33963C250.901 2.50062 250.922 2.69403 250.929 2.89926C250.936 3.10448 250.946 3.31884 250.929 3.47818C250.929 4.16388 250.929 4.8573 250.929 5.543V5.63949H251.025C251.799 5.69799 252.571 5.51466 253.26 5.75527C253.539 5.85958 253.71 6.1162 253.818 6.43068C253.927 6.74516 253.971 7.1066 253.973 7.43414C253.968 24.2986 253.988 41.1682 253.973 58.0319C253.96 58.292 253.872 58.5423 253.741 58.7266C253.61 58.9108 253.44 59.0321 253.183 59.0546H253.163C252.816 59.1134 252.457 59.0865 252.085 59.0932H251.988V59.1897C251.988 60.2511 251.988 61.3124 251.988 62.3738V62.4703H252.085C256.425 62.4703 260.766 62.4703 265.107 62.4703H265.203V62.3738C265.203 61.3124 265.203 60.2511 265.203 59.1897V59.0932H265.107C264.515 59.0458 263.92 59.1693 263.431 58.9388C263.283 58.7305 263.223 58.4848 263.219 58.2055C263.215 57.9127 263.247 57.5976 263.219 57.2986C263.226 47.6781 263.214 38.0687 263.238 28.449C263.28 26.869 263.328 25.1963 264.105 23.8176C264.345 23.4491 264.528 23.1734 264.876 22.9106C265.258 22.6924 265.738 22.4394 266.205 22.3896C266.95 22.2696 267.844 22.2976 268.44 22.6598C268.858 22.9793 269.087 23.4401 269.21 23.9527C269.333 24.4653 269.36 25.0197 269.383 25.5351C269.438 29.2093 269.387 32.8953 269.403 36.5732C269.398 43.7671 269.401 50.955 269.383 58.1476C269.377 58.3881 269.299 58.6306 269.152 58.8038C269.005 58.9769 268.806 59.076 268.555 59.0739C268.141 59.0985 267.711 59.0858 267.284 59.0932H267.187V59.1897C267.187 60.2511 267.187 61.3124 267.187 62.3738V62.4703H267.284C271.727 62.4703 276.171 62.4703 280.614 62.4703H280.71V62.3738C280.71 61.3124 280.71 60.2511 280.71 59.1897V59.0932H280.614C280.287 59.0658 279.933 59.1087 279.612 59.0932C279.301 59.0782 279.044 59.0159 278.842 58.7845C278.839 58.7786 278.844 58.771 278.842 58.7652C278.536 58.0456 278.702 57.1945 278.649 56.3723C278.649 56.3659 278.649 56.3594 278.649 56.353C278.643 45.6728 278.672 34.9803 278.649 24.3C278.56 22.344 278.226 20.2536 276.954 18.6652C276.138 17.6391 274.915 16.9861 273.641 16.6969C271.641 16.2706 269.451 16.2662 267.573 17.1986C265.968 17.9325 264.727 19.2452 263.662 20.595C263.552 20.7232 263.428 20.9262 263.315 21.0967C263.28 21.1506 263.251 21.1865 263.219 21.2318C263.219 14.6398 263.219 8.04395 263.219 1.45196V1.35547H263.123ZM263.026 1.54844C263.026 8.19832 263.026 14.8521 263.026 21.5019V21.6563L263.161 21.5791C263.233 21.5468 263.264 21.5106 263.315 21.444C263.367 21.3775 263.432 21.2796 263.489 21.1932C263.603 21.0202 263.724 20.8367 263.816 20.73C264.873 19.3897 266.091 18.085 267.65 17.3723C269.474 16.4668 271.632 16.4698 273.602 16.8899C274.84 17.1709 276.018 17.7982 276.8 18.781C278.029 20.3161 278.348 22.3596 278.437 24.3C278.46 34.9862 278.45 45.6854 278.457 56.3723C278.511 57.1657 278.297 58.0561 278.649 58.8616L278.669 58.8809C278.917 59.1843 279.267 59.2695 279.612 59.2862C279.925 59.3013 280.241 59.275 280.518 59.2862C280.518 60.2832 280.518 61.2803 280.518 62.2773C276.139 62.2773 271.759 62.2773 267.38 62.2773C267.38 61.2803 267.38 60.2832 267.38 59.2862C267.767 59.2832 268.159 59.3097 268.555 59.2862C268.865 59.2888 269.128 59.1304 269.306 58.9195C269.485 58.7087 269.587 58.4319 269.595 58.1476C269.613 50.9544 269.59 43.7667 269.595 36.5732C269.58 32.8975 269.631 29.2129 269.576 25.5351C269.553 25.0207 269.532 24.4532 269.403 23.9141C269.273 23.375 269.039 22.8597 268.574 22.5054H268.555C267.896 22.095 266.963 22.0549 266.186 22.1773C266.18 22.1783 266.172 22.1764 266.166 22.1773C265.647 22.238 265.138 22.5402 264.76 22.7563C264.385 23.0397 264.172 23.3519 263.932 23.7211C263.124 25.1553 263.068 26.8683 263.026 28.449C263.002 38.0693 263.033 47.6785 263.026 57.2986V57.3179C263.052 57.5874 263.022 57.8952 263.026 58.2055C263.031 58.5158 263.072 58.8303 263.277 59.0932L263.296 59.1125L263.315 59.1318C263.864 59.4131 264.474 59.2648 265.011 59.2862C265.011 60.2832 265.011 61.2803 265.011 62.2773C260.734 62.2773 256.458 62.2773 252.181 62.2773C252.181 61.2803 252.181 60.2832 252.181 59.2862C252.506 59.2853 252.843 59.3022 253.183 59.2476C253.189 59.247 253.196 59.2483 253.202 59.2476C253.506 59.2155 253.759 59.0613 253.915 58.8424C254.074 58.6189 254.151 58.3224 254.165 58.0319C254.181 41.168 254.161 24.2984 254.165 7.43414C254.164 7.09288 254.131 6.70048 254.011 6.35349C253.891 6.00649 253.686 5.71211 253.337 5.58159C252.61 5.3276 251.828 5.48068 251.121 5.44651C251.121 4.79926 251.121 4.14473 251.121 3.49748C251.121 3.49107 251.121 3.48459 251.121 3.47818C251.139 3.29204 251.128 3.09055 251.121 2.89926C251.115 2.72498 251.144 2.57335 251.179 2.47472C255.129 2.17213 259.077 1.8438 263.026 1.54844ZM229.18 1.35547C225.166 1.65534 221.153 1.97449 217.14 2.28174H217.083L217.044 2.33963C216.959 2.50062 216.979 2.69403 216.986 2.89926C216.994 3.10448 217.004 3.31884 216.986 3.47818C216.986 4.16388 216.986 4.8573 216.986 5.543V5.63949H217.083C217.957 5.6942 218.838 5.5271 219.625 5.79387C219.631 5.7959 219.639 5.79178 219.645 5.79387C219.909 6.01251 219.999 6.31755 220.03 6.66225C220.061 7.01001 220.029 7.39183 220.049 7.7429C220.05 7.74917 220.049 7.75595 220.049 7.7622C220.045 24.4801 220.064 41.1986 220.049 57.9161V57.9354C220.059 58.1763 220.038 58.4495 219.953 58.6687C219.868 58.8878 219.72 59.0433 219.452 59.0739C219.032 59.1329 218.603 59.1054 218.161 59.1125H218.065V59.209C218.065 60.2639 218.065 61.3189 218.065 62.3738V62.4703H218.161C222.907 62.4703 227.652 62.4703 232.397 62.4703H232.494V62.3738C232.494 61.3124 232.494 60.2511 232.494 59.1897V59.0932H232.397C231.551 59.0497 230.706 59.1793 229.912 59.016C229.599 58.9239 229.459 58.6918 229.373 58.3985C229.287 58.1052 229.276 57.7525 229.276 57.4529C229.276 38.7834 229.276 20.1215 229.276 1.45196V1.35547H229.18ZM229.084 1.54844C229.084 20.1858 229.084 38.8155 229.084 57.4529C229.083 57.7546 229.083 58.1253 229.18 58.4564C229.277 58.7875 229.491 59.0963 229.874 59.209C230.682 59.3752 231.511 59.2581 232.301 59.2862C232.301 60.2832 232.301 61.2803 232.301 62.2773C227.62 62.2773 222.939 62.2773 218.258 62.2773C218.258 61.2867 218.258 60.2961 218.258 59.3055C218.659 59.3034 219.076 59.325 219.491 59.2669C219.83 59.2281 220.024 59.0088 220.126 58.7459C220.228 58.483 220.252 58.1711 220.242 57.9161C220.256 41.1919 220.238 24.4671 220.242 7.7429C220.22 7.4112 220.257 7.02308 220.223 6.64295C220.189 6.26282 220.077 5.8824 219.741 5.62019L219.722 5.60089C218.894 5.31267 217.997 5.48099 217.179 5.44651C217.179 4.79926 217.179 4.14473 217.179 3.49748C217.179 3.49107 217.179 3.48459 217.179 3.47818C217.197 3.29204 217.186 3.09055 217.179 2.89926C217.173 2.72498 217.201 2.57335 217.237 2.47472C221.186 2.17213 225.134 1.8438 229.084 1.54844ZM124.521 2.28174V2.37823V2.43612C124.521 3.47175 124.521 4.50738 124.521 5.543V5.63949H124.617C125.53 5.69654 126.439 5.51116 127.275 5.77457C127.593 5.8719 127.801 6.1146 127.93 6.43068C128.057 6.74113 128.107 7.12366 128.142 7.45344C128.143 7.45986 128.142 7.46632 128.142 7.47274C128.255 10.072 128.173 12.6791 128.2 15.2882C128.197 29.3996 128.212 43.5157 128.2 57.6266C128.209 57.9237 128.149 58.2729 128.007 58.5336C127.866 58.7943 127.641 58.9694 127.314 58.9967C126.447 59.1778 125.532 59.0513 124.617 59.0932H124.521V59.1897C124.521 60.2511 124.521 61.3124 124.521 62.3738V62.4703H124.617C130.435 62.4703 136.252 62.4703 142.07 62.4703H142.166V62.3738C142.166 61.3124 142.166 60.2511 142.166 59.1897V59.0932H142.07C141.132 59.0425 140.193 59.1949 139.315 58.9774C138.956 58.8612 138.74 58.5825 138.602 58.2248C138.464 57.8672 138.396 57.4415 138.371 57.067C138.312 53.8463 138.368 50.6242 138.352 47.399C138.352 42.9349 138.352 38.4708 138.352 34.0066C142.115 34.0066 145.878 34.0066 149.641 34.0066C149.633 41.5893 149.647 49.1767 149.621 56.7582C149.621 56.7647 149.621 56.7711 149.621 56.7775C149.596 57.1676 149.579 57.6107 149.467 57.9933C149.357 58.3726 149.148 58.6986 148.812 58.9002C148.047 59.2322 147.16 59.0364 146.289 59.0932C146.276 59.0941 146.263 59.0923 146.25 59.0932C146.122 59.0632 145.999 59.0679 145.923 59.1318C145.837 59.2032 145.812 59.3007 145.807 59.402C145.797 59.6044 145.849 59.8412 145.826 59.9616V59.9809C145.826 60.7759 145.826 61.5787 145.826 62.3738V62.4703H145.923C151.715 62.4703 157.507 62.4703 163.298 62.4703H163.395V62.3738C163.395 61.3124 163.395 60.2511 163.395 59.1897V59.0932H163.298C162.391 59.0313 161.476 59.2395 160.659 58.9388C160.277 58.7576 160.079 58.4305 159.966 58.0319C159.852 57.6332 159.844 57.1604 159.831 56.7582C159.763 53.7221 159.811 50.6914 159.792 47.6499C159.797 34.6087 159.775 21.5555 159.792 8.5148C159.792 8.50837 159.792 8.50193 159.792 8.4955C159.816 8.0449 159.817 7.52968 159.889 7.06749C159.962 6.59908 160.111 6.18838 160.447 5.90965C161.196 5.4573 162.145 5.70397 163.048 5.63949C163.054 5.63903 163.061 5.63997 163.067 5.63949C163.128 5.6473 163.171 5.65659 163.221 5.63949C163.278 5.62024 163.327 5.57003 163.356 5.5237C163.414 5.43104 163.419 5.32386 163.414 5.21494C163.409 5.10603 163.404 4.98958 163.395 4.88689C163.386 4.7842 163.38 4.70355 163.395 4.65532V4.63602V4.61673C163.395 3.86927 163.395 3.12568 163.395 2.37823V2.28174H163.298C157.507 2.28174 151.715 2.28174 145.923 2.28174H145.826V2.37823C145.826 3.43315 145.826 4.48808 145.826 5.543V5.63949H145.923C146.849 5.69144 147.775 5.53606 148.639 5.75527C149 5.85764 149.223 6.11651 149.371 6.46927C149.519 6.82204 149.577 7.25547 149.602 7.62712C149.678 9.87 149.619 12.1106 149.641 14.3619C149.641 19.6082 149.641 24.8622 149.641 30.1086C145.878 30.1086 142.115 30.1086 138.352 30.1086C138.359 22.7317 138.346 15.3503 138.371 7.97447C138.371 7.96804 138.371 7.9616 138.371 7.95517C138.414 7.21751 138.452 6.34471 138.988 5.90965C139.737 5.45821 140.685 5.70023 141.588 5.63949C141.601 5.63863 141.614 5.64046 141.627 5.63949C141.753 5.67349 141.865 5.68984 141.954 5.65878C142.054 5.62409 142.116 5.53546 142.147 5.44651C142.208 5.26862 142.177 5.06301 142.166 4.86759C142.166 4.0378 142.166 3.20802 142.166 2.37823V2.28174H142.07C136.252 2.28174 130.435 2.28174 124.617 2.28174H124.521ZM124.713 2.47472C130.467 2.47472 136.22 2.47472 141.974 2.47472C141.974 3.27234 141.974 4.06996 141.974 4.86759C141.984 5.07041 141.99 5.28618 141.954 5.38862C141.937 5.43984 141.917 5.45191 141.877 5.46581C141.837 5.47971 141.771 5.48526 141.646 5.44651H141.627H141.608C140.742 5.51308 139.72 5.24441 138.872 5.75527C138.24 6.26893 138.202 7.2166 138.159 7.95517C138.134 15.3704 138.167 22.7901 138.159 30.205V30.3015H138.256C142.083 30.3015 145.91 30.3015 149.737 30.3015H149.833V30.205C149.833 24.9266 149.833 19.6404 149.833 14.3619C149.812 12.1156 149.871 9.8782 149.795 7.62712V7.60782C149.769 7.22446 149.707 6.77847 149.544 6.39208C149.382 6.0057 149.127 5.68411 148.697 5.5623H148.677C147.791 5.3375 146.886 5.48091 146.019 5.44651C146.019 4.45592 146.019 3.46531 146.019 2.47472C151.747 2.47472 157.474 2.47472 163.202 2.47472C163.202 3.18351 163.202 3.88863 163.202 4.59743C163.202 4.60387 163.202 4.61028 163.202 4.61673C163.177 4.71133 163.174 4.80269 163.183 4.90619C163.193 5.01655 163.217 5.13974 163.221 5.23424C163.226 5.32875 163.219 5.40061 163.202 5.42722C163.194 5.44052 163.179 5.44114 163.164 5.44651C163.148 5.45188 163.115 5.45452 163.067 5.44651H163.048C162.189 5.51214 161.174 5.24654 160.332 5.75527C159.944 6.07661 159.773 6.55594 159.696 7.04819C159.62 7.54045 159.624 8.05153 159.6 8.4955C159.583 21.5429 159.605 34.6025 159.6 47.6499C159.618 50.6881 159.551 53.736 159.619 56.7775C159.632 57.1808 159.651 57.6395 159.773 58.0705C159.896 58.5014 160.139 58.9025 160.582 59.1125C161.438 59.4274 162.36 59.2469 163.202 59.2862C163.202 60.2832 163.202 61.2803 163.202 62.2773C157.474 62.2773 151.747 62.2773 146.019 62.2773C146.019 61.5207 146.019 60.7568 146.019 60.0002C146.02 59.9937 146.018 59.9875 146.019 59.9809C146.049 59.7888 145.992 59.5733 146 59.4213C146.003 59.3426 146.04 59.3004 146.057 59.2862C146.075 59.272 146.113 59.2513 146.231 59.2862H146.25H146.269C147.109 59.2236 148.035 59.4636 148.889 59.0932L148.908 59.0739C149.315 58.8424 149.519 58.4689 149.641 58.0512C149.762 57.6334 149.807 57.1723 149.833 56.7775C149.859 49.1565 149.826 41.5309 149.833 33.9101V33.8137H149.737C145.91 33.8137 142.083 33.8137 138.256 33.8137H138.159V33.9101C138.159 38.4064 138.159 42.9027 138.159 47.399C138.176 50.6215 138.12 53.8419 138.179 57.067V57.0863C138.204 57.469 138.259 57.9112 138.41 58.302C138.561 58.6929 138.811 59.0324 139.238 59.1704H139.257C140.162 59.4002 141.088 59.2521 141.974 59.2862C141.974 60.2832 141.974 61.2803 141.974 62.2773C136.22 62.2773 130.467 62.2773 124.713 62.2773C124.713 61.2803 124.713 60.2832 124.713 59.2862C125.568 59.2586 126.46 59.3678 127.333 59.1897C127.344 59.1888 127.342 59.1716 127.352 59.1704C127.731 59.1279 128.021 58.9243 128.181 58.6301C128.345 58.3279 128.403 57.9536 128.393 57.6266C128.405 43.5155 128.389 29.3995 128.393 15.2882C128.365 12.6784 128.45 10.0692 128.335 7.45344C128.299 7.11346 128.246 6.70169 128.104 6.35349C127.962 6.00529 127.719 5.69981 127.333 5.58159C126.466 5.30841 125.564 5.48319 124.713 5.44651C124.713 4.45592 124.713 3.46531 124.713 2.47472ZM1.50293 2.32034V2.43612V5.48511V5.58159H1.61851H2.83212C3.55657 5.58159 4.13759 6.00594 4.54659 6.79733C4.95559 7.58872 5.18229 8.7513 5.18229 10.1551V54.5197C5.1823 55.8868 4.95641 57.056 4.54659 57.8775C4.13676 58.6989 3.55329 59.1511 2.83212 59.1511H1.61851H1.50293V59.2476V62.3159V62.4124H1.61851H13.5235H13.6198V62.3159V59.2476V59.1511H13.5235H11.6934C10.8919 59.1511 10.3118 58.6977 9.92115 57.8775C9.53055 57.0572 9.34324 55.8886 9.34324 54.5197V17.1407L18.7632 62.258L18.7824 62.3352H18.8595H23.4442H23.5213L23.5406 62.258L32.9605 17.0828V55.2723C32.9605 56.6449 32.8484 57.6394 32.556 58.2634C32.2635 58.8875 31.8295 59.1511 31.0919 59.1511H28.9537H28.8381V59.2476V62.3159V62.4124H28.9537H46.1176H46.2139V62.3159V59.2476V59.1511H46.1176H44.8269C44.0894 59.1511 43.6366 58.8875 43.3436 58.2634C43.0506 57.6394 42.9391 56.6449 42.9391 55.2723V9.46037C42.9391 8.08909 43.0506 7.11199 43.3436 6.48857C43.6366 5.86515 44.0893 5.58159 44.8269 5.58159H46.1176H46.2139V5.48511V2.43612V2.32034H46.1176H31.7661H31.6891L31.6698 2.41682L24.2918 39.7187L16.4515 2.39753L16.4323 2.32034H16.3552H1.61851H1.50293ZM1.71483 2.53261H16.2782L24.1955 40.2397L24.3882 40.2204V40.1818L31.8432 2.53261H46.0213V5.38862H44.8269C44.037 5.38862 43.4881 5.71579 43.1702 6.39208C42.8524 7.06838 42.7464 8.07814 42.7464 9.46037V55.2723C42.7464 56.6558 42.8524 57.6637 43.1702 58.3406C43.4881 59.0175 44.0369 59.3634 44.8269 59.3634H46.0213V62.2194H29.05V59.3634H31.0919C31.8819 59.3634 32.4121 59.0175 32.7293 58.3406C33.0465 57.6637 33.1724 56.6558 33.1724 55.2723V16.0601V16.0408H33.0761L32.9798 16.0215V16.0408H32.9605V16.118L23.3672 62.1422H18.9365L9.34324 16.1952V16.1759L9.24692 16.1952H9.1506V16.2144V54.5197C9.1506 55.9068 9.33671 57.0914 9.74778 57.9547C10.1588 58.8179 10.8145 59.3634 11.6934 59.3634H13.4271V62.2194H1.71483V59.3634H2.83212C3.63849 59.3634 4.28989 58.8167 4.71996 57.9547C5.15003 57.0926 5.37493 55.9087 5.37493 54.5197V10.1551C5.37493 8.73 5.15086 7.5539 4.71996 6.72014C4.28907 5.88638 3.63521 5.38862 2.83212 5.38862H1.71483V2.53261ZM240.642 5.33073L240.604 5.38862L240.584 5.42722C239.564 8.43202 238.583 11.4898 237.059 14.2654C236.562 15.0915 236.022 15.9085 235.287 16.446C234.403 17.1715 233.196 17.219 232.07 17.1793C232.063 17.1791 232.057 17.1795 232.05 17.1793C231.912 17.148 231.796 17.1595 231.723 17.2372C231.645 17.3194 231.627 17.4396 231.627 17.546C231.626 17.6523 231.637 17.7513 231.646 17.8547C231.655 17.9581 231.66 18.0506 231.646 18.1056V18.1249V18.1442C231.646 18.9958 231.646 19.8398 231.646 20.6914V20.7879H231.742C232.731 20.7879 233.72 20.7879 234.709 20.7879C234.715 32.0831 234.686 43.3788 234.709 54.6741C234.8 56.6754 234.887 58.8139 235.922 60.6177H235.942C236.636 61.6537 237.679 62.4565 238.908 62.7597C240.787 63.306 242.764 63.2999 244.687 63.1457H244.707C246.391 62.9334 248.106 62.2812 249.195 60.9072C250.17 59.7444 250.629 58.2192 250.833 56.7389C251.078 54.5977 250.926 52.4449 250.967 50.3129C250.967 49.505 250.967 48.6894 250.967 47.8814V47.785H250.871C249.741 47.785 248.611 47.785 247.481 47.785H247.384V47.8814C247.365 50.6719 247.425 53.454 247.346 56.2372C247.305 56.6561 247.271 57.1165 247.153 57.5301C247.038 57.9346 246.836 58.2938 246.479 58.5143C246.12 58.7034 245.643 58.7751 245.227 58.688C244.811 58.6008 244.459 58.3723 244.283 57.974C243.783 56.6982 243.987 55.2699 243.936 53.8829C243.936 42.877 243.936 31.871 243.936 20.8651C246.196 20.8651 248.457 20.8651 250.717 20.8651H250.813V20.7686C250.813 19.6044 250.813 18.4401 250.813 17.2758V17.1793H250.717C248.482 17.1793 246.248 17.1793 244.013 17.1793C244.013 13.2619 244.013 9.34458 244.013 5.42722V5.33073H243.917C242.845 5.33073 241.772 5.33073 240.7 5.33073H240.642ZM240.777 5.5237C241.791 5.5237 242.806 5.5237 243.821 5.5237C243.821 9.44107 243.821 13.3584 243.821 17.2758V17.3723H243.917C246.151 17.3723 248.386 17.3723 250.621 17.3723C250.621 18.4722 250.621 19.5722 250.621 20.6721C248.36 20.6721 246.1 20.6721 243.84 20.6721H243.744V20.7686C243.744 31.8067 243.744 42.8448 243.744 53.8829C243.794 55.2442 243.566 56.7118 244.09 58.0512C244.295 58.5151 244.725 58.784 245.188 58.8809C245.651 58.9779 246.152 58.9203 246.556 58.7073V58.688H246.575C247.002 58.4365 247.22 58.0297 247.346 57.588C247.472 57.1463 247.498 56.6711 247.538 56.2565C247.617 53.4988 247.559 50.7325 247.577 47.9779C248.643 47.9779 249.709 47.9779 250.775 47.9779C250.775 48.7538 250.775 49.5371 250.775 50.3129C250.733 52.4568 250.883 54.5832 250.64 56.7003C250.44 58.1588 249.98 59.6707 249.041 60.7914C248 62.1049 246.333 62.7422 244.687 62.9527C244.681 62.9535 244.674 62.9519 244.668 62.9527C242.762 63.1045 240.803 63.1009 238.966 62.5667H238.947C237.769 62.2762 236.765 61.5191 236.096 60.5212C235.091 58.7719 235.012 56.6759 234.921 54.6741C234.898 43.3472 234.908 32.019 234.901 20.6914V20.595H234.805C233.816 20.595 232.827 20.595 231.839 20.595C231.839 19.782 231.839 18.9764 231.839 18.1635C231.839 18.157 231.839 18.1506 231.839 18.1442C231.859 18.0488 231.847 17.9378 231.839 17.8354C231.829 17.7267 231.819 17.6332 231.819 17.546C231.82 17.4587 231.841 17.39 231.858 17.3723C231.875 17.3546 231.917 17.3422 232.031 17.3723H232.05C233.191 17.4134 234.449 17.383 235.402 16.6004C236.179 16.0331 236.714 15.1913 237.213 14.3619V14.3426C238.746 11.5508 239.759 8.52149 240.777 5.5237ZM89.037 16.446C87.0283 16.5844 85.0775 17.4789 83.6625 18.8968C82.9108 19.6184 82.2469 20.4079 81.6783 21.2897C81.6783 19.778 81.6783 18.2664 81.6783 16.7548V16.6583H81.582C77.5936 16.9255 73.6067 17.2209 69.6192 17.4881H69.5229V17.5846C69.5229 18.6459 69.5229 19.7073 69.5229 20.7686V20.8651H69.6192C70.3995 20.9218 71.1765 20.7423 71.8731 20.9809C72.1581 21.0962 72.327 21.3424 72.4317 21.6563C72.5365 21.9702 72.5641 22.3404 72.5666 22.6598C72.5936 31.7157 72.5781 40.7734 72.5859 49.8305C72.5693 52.5642 72.6262 55.3036 72.5666 58.0319C72.5532 58.291 72.4663 58.5416 72.3354 58.7266C72.2046 58.9115 72.0348 59.0336 71.7768 59.0546H71.7575C71.0814 59.1346 70.3971 59.0735 69.6963 59.0932H69.6V59.1897C69.6 60.2511 69.6 61.3124 69.6 62.3738V62.4703H69.6963C74.3709 62.4703 79.0456 62.4703 83.7202 62.4703H83.8166V62.3738C83.8166 61.3124 83.8166 60.2511 83.8166 59.1897V59.0932H83.7202C83.1218 59.0451 82.5204 59.1709 82.025 58.9388C81.8686 58.6866 81.8166 58.3914 81.8131 58.0705C81.8096 57.7423 81.8384 57.399 81.8131 57.067C81.8127 57.0606 81.8137 57.0541 81.8131 57.0477C81.8199 47.516 81.8085 37.98 81.8324 28.449C81.8884 26.8694 81.9115 25.1885 82.6993 23.8176C82.8866 23.4928 83.1843 23.1208 83.4698 22.9299C84.4102 22.272 85.6855 22.1495 86.7639 22.5247C87.1127 22.6557 87.3689 22.9426 87.5537 23.2966C87.7386 23.6506 87.8552 24.0663 87.9005 24.4544C88.0862 26.2752 87.9594 28.1281 87.9968 29.9735C87.9917 39.3698 87.9954 48.7525 87.9775 58.1476H87.9968C87.9788 58.4108 87.8832 58.6396 87.7464 58.8038C87.6095 58.9679 87.4317 59.062 87.1684 59.0739C86.748 59.0986 86.3111 59.0858 85.8778 59.0932H85.7815V59.1897C85.7815 60.2511 85.7815 61.3124 85.7815 62.3738V62.4703H85.8778C90.3213 62.4703 94.7648 62.4703 99.2082 62.4703H99.3046V62.3738C99.3046 61.3124 99.3046 60.2511 99.3046 59.1897V59.0932H99.2082C98.8818 59.0668 98.5279 59.1094 98.2065 59.0932C97.8946 59.0775 97.6344 59.0138 97.436 58.7845C97.4334 58.7786 97.4385 58.771 97.436 58.7652C97.1304 58.0456 97.2959 57.1945 97.2433 56.3723C97.2429 56.3659 97.2438 56.3594 97.2433 56.353C97.2368 45.6728 97.2663 34.9803 97.2433 24.3C97.1508 22.436 96.869 20.4361 95.7215 18.8775C94.6073 17.2865 92.6268 16.5723 90.7515 16.4653C90.176 16.4037 89.611 16.4127 89.037 16.446ZM89.037 16.639C89.6036 16.6061 90.1708 16.5982 90.7322 16.6583L90.7515 16.6776C92.5846 16.7821 94.5003 17.4696 95.5674 18.9933V19.0126C96.6761 20.5185 96.9395 22.4483 97.0314 24.3C97.0544 34.9862 97.0441 45.6854 97.0507 56.3723C97.105 57.1657 96.8913 58.0561 97.2433 58.8616L97.2626 58.8809C97.5077 59.1829 97.8604 59.2688 98.2065 59.2862C98.5194 59.302 98.8349 59.2755 99.1119 59.2862C99.1119 60.2832 99.1119 61.2803 99.1119 62.2773C94.7327 62.2773 90.3534 62.2773 85.9741 62.2773C85.9741 61.2803 85.9741 60.2832 85.9741 59.2862C86.3679 59.2831 86.7661 59.3098 87.1684 59.2862C87.4804 59.2721 87.7306 59.1233 87.9005 58.9195C88.0704 58.7158 88.1692 58.4625 88.1894 58.1669V58.1476C88.2073 48.752 88.1843 39.3503 88.1894 29.9542C88.1522 28.1205 88.2811 26.2782 88.0931 24.4351C88.0456 24.0278 87.927 23.583 87.7271 23.2001C87.5272 22.8172 87.247 22.4842 86.841 22.3317C85.7039 21.9361 84.3532 22.0767 83.3542 22.7756C83.0221 22.9976 82.7425 23.379 82.5452 23.7211C81.7245 25.1494 81.6764 26.8716 81.6205 28.449C81.5966 37.987 81.6273 47.5292 81.6205 57.067C81.6465 57.3782 81.6167 57.7204 81.6205 58.0705C81.6243 58.4205 81.6658 58.787 81.8709 59.0932L81.8902 59.1125L81.9095 59.1318C82.4644 59.4149 83.0813 59.2641 83.6239 59.2862C83.6239 60.2832 83.6239 61.2803 83.6239 62.2773C79.0135 62.2773 74.4031 62.2773 69.7926 62.2773C69.7926 61.2803 69.7926 60.2832 69.7926 59.2862C70.4479 59.2745 71.1252 59.3269 71.796 59.2476C72.1105 59.222 72.3502 59.0665 72.5088 58.8424C72.6674 58.6182 72.7442 58.321 72.7592 58.0319C72.819 55.2983 72.7619 52.561 72.7785 49.8305C72.7708 40.7738 72.8055 31.7164 72.7785 22.6598C72.7759 22.3289 72.7399 21.9448 72.6244 21.5984C72.5088 21.2521 72.3021 20.9496 71.9501 20.8072C71.2164 20.5559 70.4295 20.7056 69.7156 20.6721C69.7156 19.6751 69.7156 18.6781 69.7156 17.681C73.64 17.4177 77.5621 17.1146 81.4857 16.8513C81.4857 18.4208 81.4857 19.9903 81.4857 21.5598V21.9072L81.659 21.6177C82.2386 20.6567 82.986 19.8301 83.7973 19.0512C85.1784 17.6674 87.0782 16.7739 89.037 16.639ZM200.497 16.446C197.94 16.5342 195.34 17.2745 193.292 18.8582C192.343 19.7143 191.406 20.6937 190.961 21.9458H190.98C190.077 24.1371 190.558 26.7226 191.886 28.6227C192.485 29.3963 193.288 30.0712 194.294 30.2822C195.716 30.6277 197.24 30.0322 198.204 28.9893C199.252 27.9854 199.533 26.3113 198.898 24.9948C198.366 23.7859 197.331 22.9094 196.297 22.1773V22.158C195.844 21.8422 195.361 21.5639 194.872 21.309C195.812 20.6652 196.991 20.4227 198.127 20.2283C198.133 20.2279 198.14 20.2288 198.146 20.2283C199.449 20.1354 200.839 20.0974 201.999 20.6914C202.465 20.9666 202.814 21.3284 202.982 21.8686C203.467 23.4615 203.235 25.1869 203.29 26.8666C203.29 29.0626 203.29 31.2511 203.29 33.447C200.402 34.4451 197.478 35.4356 194.795 36.9398C192.863 38.0536 191.129 39.6093 190.113 41.6291C189.002 43.9206 188.663 46.4753 188.534 48.9814C188.397 52.0248 188.457 55.1745 189.42 58.1091C189.902 59.4652 190.634 60.7544 191.751 61.6984C193.111 62.9188 195.031 63.3452 196.817 63.2229C198.881 63.1182 200.899 62.1875 202.269 60.637C203.014 59.8419 203.638 58.9399 204.157 57.974C204.51 59.4486 204.909 61.0551 206.179 62.0457C207.387 63.0744 209.073 63.2044 210.571 63.2422C212.286 63.2341 214.233 62.9288 215.445 61.5633C216.442 60.5426 216.828 59.0928 217.083 57.7424C217.303 56.349 217.345 54.9374 217.352 53.5356V53.4391H217.256C216.299 53.4391 215.342 53.4391 214.386 53.4391H214.289V53.5356C214.271 54.948 214.34 56.3655 214.097 57.7424C214.033 58.1629 213.676 58.4732 213.249 58.4178H213.23C213.019 58.4517 212.878 58.3655 212.768 58.2248C212.657 58.0842 212.585 57.8792 212.594 57.6845C212.473 55.5988 212.566 53.4927 212.536 51.3936C212.528 43.347 212.548 35.2997 212.517 27.2525C212.471 24.6627 211.987 21.9318 210.36 19.8231C209.539 18.8421 208.529 17.9959 207.335 17.4881C205.196 16.5419 202.794 16.3646 200.497 16.446ZM200.497 16.639C202.779 16.5581 205.16 16.753 207.258 17.681C208.418 18.1742 209.401 18.9772 210.205 19.9388C211.794 21.9974 212.278 24.6851 212.324 27.2525C212.355 35.2987 212.335 43.3464 212.344 51.3936C212.373 53.485 212.28 55.5854 212.402 57.6845C212.39 57.9248 212.448 58.1747 212.594 58.3599C212.731 58.5341 212.974 58.6156 213.23 58.5915C213.246 58.59 213.252 58.6134 213.268 58.6108C213.27 58.611 213.266 58.5913 213.268 58.5915C213.781 58.6327 214.214 58.2801 214.289 57.781C214.532 56.4067 214.468 55.0052 214.482 53.6321C215.375 53.6321 216.267 53.6321 217.16 53.6321C217.151 54.9982 217.102 56.3584 216.89 57.7038C216.637 59.0433 216.259 60.4563 215.31 61.4282H215.291C214.139 62.726 212.263 63.0412 210.571 63.0492C209.082 63.0116 207.459 62.8665 206.314 61.8913C205.052 60.9072 204.657 59.2537 204.292 57.7231L204.234 57.4529L204.099 57.7038C203.57 58.7348 202.902 59.6818 202.115 60.5212C200.783 62.0287 198.81 62.9279 196.798 63.0299C195.052 63.1495 193.174 62.7176 191.866 61.544C190.785 60.6305 190.087 59.367 189.613 58.0319C188.662 55.1347 188.59 52.0356 188.726 49.0007C188.855 46.5056 189.213 43.96 190.306 41.7063C191.3 39.73 192.984 38.2129 194.891 37.1135C197.57 35.6115 200.516 34.6262 203.425 33.6207L203.482 33.6014V33.5242C203.482 31.3024 203.482 29.0884 203.482 26.8666V26.8473C203.428 25.19 203.656 23.4571 203.155 21.8107C202.972 21.2216 202.591 20.83 202.095 20.5371V20.5178C200.871 19.8907 199.441 19.9409 198.127 20.0353H198.108C196.908 20.2405 195.617 20.4675 194.602 21.2318L194.467 21.3283L194.621 21.4054C195.166 21.6784 195.682 21.9836 196.182 22.3317C197.205 23.0563 198.217 23.9174 198.724 25.0719C199.321 26.3078 199.05 27.9143 198.069 28.8542H198.05C197.131 29.8482 195.673 30.4149 194.332 30.0893C193.388 29.8911 192.621 29.2565 192.04 28.5069C190.748 26.6572 190.281 24.1406 191.154 22.023C191.581 20.8213 192.467 19.861 193.408 19.0126C195.416 17.46 197.973 16.7261 200.497 16.639ZM175.088 16.446C172.467 16.6081 169.962 17.8867 168.23 19.8424C166.516 21.607 165.392 23.8475 164.551 26.1333C162.938 30.6501 162.518 35.4831 162.489 40.2397C162.549 44.6755 162.796 49.1896 164.069 53.4777C164.685 55.4832 165.52 57.4375 166.804 59.1125C167.813 60.3546 169.05 61.4574 170.522 62.1422C172.833 63.2545 175.477 63.3907 177.977 63.1264C180.02 62.9057 182.188 62.3096 183.66 60.7721C184.187 60.2557 184.587 59.7571 184.951 59.0932C186.143 56.9016 186.394 54.3523 186.453 51.9146C186.459 50.6691 186.414 49.4316 186.319 48.1902V48.0937H186.222C185.118 48.0937 184.013 48.0937 182.909 48.0937H182.813V48.1902C182.85 50.556 182.867 52.9518 182.427 55.2723C182.227 56.2931 181.856 57.3473 181.117 58.0126C179.993 58.9191 178.42 58.8123 177.014 58.7459C176.019 58.6673 175.016 58.3449 174.356 57.588C174.068 57.2202 173.734 56.6568 173.566 56.1214C172.809 53.8986 172.758 51.5197 172.622 49.1744C172.509 45.7039 172.498 42.2275 172.506 38.7538C177.335 38.7538 182.164 38.7538 186.993 38.7538H187.089V38.6573C187.06 33.8837 186.92 29.048 185.683 24.3965V24.3772C185.102 22.5392 184.396 20.6566 183.044 19.2248C181.779 17.7531 179.941 16.8748 178.035 16.6004C177.061 16.43 176.068 16.4095 175.088 16.446ZM175.088 16.639C176.061 16.6028 177.062 16.6265 178.016 16.7934C179.88 17.0618 181.661 17.9297 182.89 19.3599C184.202 20.7495 184.913 22.6099 185.49 24.4351C185.492 24.4412 185.489 24.4483 185.49 24.4544C186.707 29.04 186.866 33.828 186.896 38.5608C182.068 38.5608 177.239 38.5608 172.41 38.5608H172.314V38.6573C172.305 42.1638 172.315 45.6677 172.429 49.1744C172.565 51.5143 172.603 53.9373 173.373 56.1986C173.553 56.7691 173.901 57.3202 174.202 57.7038C174.908 58.5134 175.966 58.8769 176.995 58.9581H177.014C178.417 59.0245 180.034 59.1334 181.233 58.1669C182.024 57.455 182.415 56.3528 182.62 55.3109V55.2916C183.059 52.977 183.041 50.6219 183.005 48.2867C184.045 48.2867 185.086 48.2867 186.126 48.2867C186.216 49.4911 186.267 50.7067 186.261 51.9146C186.202 54.3414 185.945 56.8508 184.777 58.9967C184.422 59.645 184.041 60.131 183.525 60.637H183.506C182.084 62.123 179.978 62.7152 177.958 62.9334C175.479 63.1955 172.882 63.058 170.619 61.9685H170.599C169.162 61.3 167.953 60.2219 166.959 58.9967C165.694 57.3478 164.874 55.4117 164.262 53.4198C162.997 49.1613 162.741 44.6701 162.682 40.2397C162.71 35.4941 163.142 30.6957 164.743 26.2105C165.579 23.9386 166.679 21.7128 168.365 19.9774H168.384C170.082 18.0603 172.523 16.7976 175.088 16.639ZM111.749 16.4267C111.314 16.4281 110.865 16.4142 110.42 16.4653C110.413 16.4661 110.407 16.4645 110.4 16.4653C107.857 16.6467 105.309 17.7407 103.677 19.7459C102.12 21.5497 101.4 23.9734 101.269 26.3263C101.164 28.804 101.332 31.342 102.194 33.6979C102.993 35.9502 104.423 37.9201 105.931 39.7187C108.007 42.1955 110.203 44.5556 112.269 47.0324C112.72 47.6775 113.31 48.3562 113.733 49.0586L113.752 49.0779C114.904 50.7287 115.468 52.7567 115.351 54.7706C115.301 55.8969 115.165 57.0812 114.504 57.9933C114.138 58.4825 113.457 58.9076 112.808 59.0546C111.815 59.3177 110.737 59.3138 109.726 59.1125C108.82 58.8887 108.074 58.411 107.492 57.6845C107.096 57.1065 106.688 56.3826 106.451 55.6776C105.602 53.2906 105.408 50.7352 104.987 48.2288V48.1902L104.93 48.1516C104.769 48.066 104.576 48.0864 104.371 48.0937C104.166 48.101 103.952 48.1112 103.793 48.0937C102.999 48.0937 102.198 48.0937 101.404 48.0937H101.308V48.1902C101.308 52.9181 101.308 57.6459 101.308 62.3738V62.4703H101.404C102.387 62.4703 103.369 62.4703 104.352 62.4703H104.429L104.448 62.3931C104.63 61.5522 104.892 60.6471 105.546 60.0967C105.634 60.0253 105.691 60.0137 105.758 60.0195C105.825 60.0253 105.914 60.0594 105.989 60.116C106.139 60.2291 106.282 60.4226 106.432 60.5598C108.101 62.296 110.53 63.2196 112.924 63.2422C115.31 63.2767 117.788 62.6833 119.686 61.158C120.744 60.2748 121.658 59.1777 122.228 57.8968C123.551 55.1536 123.616 52.014 123.307 49.0586C123.033 46.3444 121.998 43.752 120.437 41.5326C119.339 39.9604 118.068 38.5379 116.815 37.0942C115.299 35.3832 113.703 33.7507 112.269 31.9804C111.799 31.3213 111.211 30.599 110.766 29.877C109.732 28.2511 109.264 26.2856 109.341 24.3579C109.348 23.4253 109.549 22.4007 110.073 21.6949C110.85 20.7292 112.27 20.5523 113.502 20.6528C114.443 20.6894 115.393 20.9585 116.102 21.5791C116.339 21.7358 116.566 22.0493 116.738 22.3317C117.603 23.651 117.781 25.3009 117.971 26.8666C118.115 28.0496 118.282 29.2363 118.414 30.4173V30.4945H118.51C119.673 30.4945 120.835 30.4945 121.997 30.4945H122.093V30.398C122.093 26.024 122.093 21.6499 122.093 17.2758V17.1793H121.997C121.04 17.1793 120.084 17.1793 119.127 17.1793H119.05L119.031 17.2565C118.935 18.0056 118.983 18.7952 118.722 19.4564C118.691 19.5186 118.694 19.5145 118.684 19.5143C118.674 19.5141 118.635 19.4964 118.587 19.4564C118.54 19.4164 118.487 19.3565 118.433 19.302C118.386 19.2539 118.334 19.2014 118.279 19.1669C118.273 19.1611 118.267 19.1535 118.26 19.1476C116.472 17.5894 114.155 16.5279 111.749 16.4267ZM111.749 16.6197C114.111 16.7191 116.383 17.7796 118.144 19.3213H118.164C118.186 19.3336 118.228 19.3851 118.279 19.4371C118.331 19.4892 118.391 19.5593 118.453 19.6108C118.514 19.6622 118.592 19.7054 118.684 19.7073C118.775 19.7092 118.865 19.6328 118.915 19.5336C119.188 18.8407 119.125 18.0737 119.204 17.3723C120.103 17.3723 121.002 17.3723 121.901 17.3723C121.901 21.682 121.901 25.9918 121.901 30.3015C120.796 30.3015 119.692 30.3015 118.587 30.3015C118.457 29.1435 118.304 28.002 118.164 26.8473C117.974 25.2836 117.81 23.6065 116.912 22.2352C116.734 21.9433 116.503 21.614 116.218 21.4247C115.464 20.7653 114.474 20.4976 113.502 20.4599C112.24 20.3568 110.761 20.5323 109.919 21.5791C109.355 22.3384 109.156 23.3986 109.148 24.3579C109.07 26.3222 109.534 28.3095 110.593 29.9735C111.048 30.7122 111.651 31.4456 112.115 32.0962C113.557 33.8755 115.149 35.5227 116.661 37.2293C117.916 38.6745 119.174 40.0891 120.263 41.6484C121.807 43.8423 122.844 46.4009 123.114 49.0779C123.421 52.0162 123.353 55.1273 122.055 57.8196C121.499 59.0669 120.61 60.1358 119.57 61.0037C117.719 62.4917 115.276 63.064 112.924 63.0299C110.579 63.0078 108.194 62.1172 106.567 60.4247V60.4054C106.441 60.2898 106.289 60.1007 106.105 59.9616C106.012 59.892 105.896 59.8368 105.777 59.8265C105.659 59.8162 105.529 59.8465 105.411 59.9423C104.718 60.5261 104.458 61.4469 104.275 62.2773C103.35 62.2773 102.425 62.2773 101.501 62.2773C101.501 57.6138 101.501 52.9502 101.501 48.2867C102.256 48.2867 103.018 48.2867 103.774 48.2867C103.78 48.2867 103.787 48.2867 103.793 48.2867C103.979 48.3044 104.18 48.2935 104.371 48.2867C104.553 48.2802 104.717 48.3046 104.814 48.3446C105.224 50.8142 105.406 53.3597 106.259 55.7548C106.505 56.4876 106.936 57.2129 107.338 57.8003C107.945 58.5581 108.723 59.0721 109.668 59.3055H109.688C110.723 59.5118 111.818 59.52 112.847 59.2476C113.545 59.0893 114.256 58.6472 114.658 58.1091C115.358 57.1428 115.493 55.9261 115.544 54.7899C115.664 52.731 115.084 50.6502 113.906 48.9621C113.471 48.2379 112.865 47.548 112.423 46.9166C110.353 44.4347 108.157 42.0555 106.085 39.5836C104.583 37.7923 103.173 35.8373 102.387 33.6207C101.537 31.2996 101.357 28.7888 101.462 26.3263C101.591 24.0063 102.311 21.6418 103.832 19.881C105.426 17.9212 107.917 16.8323 110.42 16.6583H110.439C110.871 16.6068 111.303 16.6211 111.749 16.6197ZM58.6582 16.4846C54.9202 16.4846 51.6086 18.4766 49.2383 22.4282C46.868 26.3798 45.4241 32.2725 45.4241 40.1239C45.4244 48.7394 46.7486 54.4977 49.0649 58.1091C51.3812 61.7204 54.7018 63.1843 58.6582 63.1843C62.415 63.1843 65.277 62.3649 67.0764 60.0774C68.8759 57.7898 69.5966 54.0535 69.1377 48.2288V48.1516H69.0413H65.8436H65.728L65.7473 48.2481C65.8627 53.138 65.5082 55.8028 64.707 57.2214C64.3064 57.9306 63.7984 58.3207 63.1659 58.5529C62.5335 58.785 61.766 58.8424 60.8735 58.8424C59.5649 58.8424 58.5823 58.6818 57.8299 58.1862C57.0774 57.6907 56.5466 56.8677 56.1732 55.5232C55.4264 52.8342 55.3256 48.0963 55.3256 39.9888C55.3256 39.7044 55.3256 39.2456 55.3256 38.6959H69.8119H69.9082V38.5994C69.9082 30.4098 69.1265 24.8939 67.3269 21.4054C65.5272 17.917 62.69 16.4846 58.6582 16.4846ZM58.6582 16.6776C62.6438 16.6776 65.3821 18.0683 67.1535 21.5019C68.9173 24.9208 69.7089 30.3837 69.7156 38.5029H55.2293H55.133V38.5994C55.133 39.2114 55.133 39.6831 55.133 39.9888C55.133 48.0979 55.2191 52.8392 55.9806 55.5811C56.3613 56.952 56.9133 57.8131 57.7143 58.3406C58.5153 58.8681 59.5478 59.0546 60.8735 59.0546C61.7743 59.0546 62.5536 58.9918 63.2237 58.7459C63.8938 58.4999 64.4601 58.062 64.8804 57.3179C65.714 55.8419 66.0472 53.1684 65.9399 48.3446H68.945C69.385 54.0855 68.6624 57.7496 66.9223 59.9616C65.1716 62.1872 62.3869 62.9913 58.6582 62.9913C54.7495 62.9913 51.5022 61.5723 49.219 58.0126C46.9358 54.4529 45.617 48.7192 45.6167 40.1239C45.6167 32.2965 47.0487 26.4319 49.3924 22.5247C51.7361 18.6174 54.9898 16.6776 58.6582 16.6776ZM58.1766 20.1897C57.1301 20.1691 56.3518 21.0096 56.0769 21.9458C55.4201 24.0008 55.4282 26.169 55.2678 28.2753C55.1519 30.6675 55.1106 33.0611 55.0752 35.4539V35.5504H55.1715C57.2712 35.5504 59.371 35.5504 61.4707 35.5504H61.567V35.4539C61.5442 32.1191 61.6243 28.7774 61.5285 25.4386C61.4311 23.9893 61.5074 22.4099 60.7772 21.0581V21.0388C60.5008 20.5864 60.0715 20.3556 59.6021 20.2476C59.1328 20.1396 58.6334 20.1568 58.1766 20.1897ZM58.1766 20.3827C58.6261 20.3503 59.128 20.3403 59.5636 20.4406C59.9992 20.5408 60.3784 20.7539 60.6231 21.1546C61.3096 22.4398 61.2378 23.9977 61.3359 25.4579C61.4306 28.7579 61.3535 32.0511 61.3744 35.3574C59.3389 35.3574 57.3033 35.3574 55.2678 35.3574C55.303 32.9971 55.3463 30.6314 55.4605 28.2753C55.6217 26.158 55.6061 24.0194 56.2503 22.0037V21.9844C56.5055 21.1152 57.2368 20.3642 58.1766 20.3827ZM203.598 35.7048L203.444 35.8013L203.405 35.8206L203.348 35.8592C202.381 36.454 201.345 36.9714 200.477 37.731C199.929 38.09 199.428 38.7055 198.994 39.2169H198.975C197.676 41.11 197.498 43.4846 197.357 45.6815C197.264 48.4986 197.187 51.3325 197.337 54.1531C197.431 55.1257 197.492 56.226 198.05 57.0863C198.521 57.8226 199.413 57.9901 200.208 57.9547C200.214 57.9547 200.221 57.9547 200.227 57.9547C201.143 57.9562 202.084 57.6051 202.635 56.8354C203.431 55.7658 203.534 54.3399 203.598 53.0724C203.619 47.3409 203.592 41.6095 203.598 35.8785V35.7048ZM203.405 36.0522C203.4 41.7259 203.407 47.3997 203.386 53.0724C203.322 54.3372 203.231 55.7117 202.481 56.7196C201.972 57.4311 201.079 57.7678 200.208 57.7617C199.443 57.799 198.625 57.6283 198.204 56.9705C197.686 56.1709 197.643 55.1134 197.549 54.1338C197.4 51.3232 197.457 48.4973 197.549 45.6815C197.69 43.4956 197.882 41.1857 199.129 39.352C199.135 39.3453 199.142 39.3395 199.148 39.3327C199.58 38.8241 200.092 38.2132 200.593 37.8854C201.418 37.163 202.446 36.6378 203.405 36.0522Z" fill="#979797"/>
<path d="M262.526 0.756836L262.429 0.776133L250.447 1.68311L250.351 1.70241V1.7796V4.84788V4.94437H250.447H251.969C252.45 4.94437 252.793 5.05321 253.029 5.34961C253.264 5.64601 253.395 6.15929 253.395 6.98989V56.8543C253.395 57.5352 253.326 57.9503 253.125 58.1858C252.923 58.4213 252.57 58.5139 251.969 58.5139H251.507H251.41V58.6104V61.6787H251.507V61.7751H251.622H264.413H264.51V61.6787V58.6104V58.5139H264.413H263.585C263.096 58.5139 262.829 58.4588 262.699 58.3209C262.569 58.183 262.526 57.9255 262.526 57.4718V28.1784C262.526 26.3096 262.688 24.6583 263.238 23.4891C263.789 22.32 264.707 21.6173 266.321 21.6173C266.902 21.6173 267.353 21.7124 267.688 21.8875C268.023 22.0626 268.251 22.3166 268.42 22.6787C268.759 23.4027 268.825 24.5469 268.825 26.1136V57.2403C268.825 57.7986 268.689 58.1056 268.478 58.2823C268.268 58.4591 267.965 58.5139 267.553 58.5139H266.706H266.61V58.6104V61.6787V61.7751H266.706H279.921H280.017V61.6787V58.6104V58.5139H279.921H279.227C278.702 58.5139 278.387 58.4418 278.206 58.2437C278.025 58.0457 277.956 57.69 277.956 57.0859V24.4347C277.956 21.6697 277.456 19.5077 276.261 18.0473C275.065 16.5869 273.171 15.8474 270.443 15.8474C266.988 15.8474 264.496 17.8365 262.526 20.8454V0.87262V0.756836ZM262.333 0.969107V21.1349V21.4822L262.526 21.1928C264.501 18.073 266.969 16.0404 270.443 16.0404C273.135 16.0404 274.954 16.7746 276.107 18.1824C277.259 19.5902 277.763 21.6934 277.763 24.4347V57.0859C277.763 57.7063 277.833 58.1179 278.071 58.3788C278.31 58.6397 278.683 58.7069 279.227 58.7069H279.824V61.5822H266.802V58.7069H267.553C267.982 58.7069 268.345 58.6613 268.613 58.4367C268.881 58.2121 269.017 57.8293 269.017 57.2403V26.1136C269.017 24.5421 268.962 23.3875 268.594 22.6015C268.41 22.2084 268.158 21.9089 267.785 21.7138C267.411 21.5187 266.922 21.4243 266.321 21.4243C264.649 21.4243 263.64 22.1721 263.065 23.3927C262.49 24.6133 262.333 26.2989 262.333 28.1784V57.4718C262.333 57.9364 262.37 58.2498 262.564 58.456C262.758 58.6622 263.081 58.7069 263.585 58.7069H264.317V61.5822H251.622V58.7069H251.969C252.591 58.7069 253.022 58.6209 253.279 58.3209C253.536 58.0209 253.607 57.5498 253.607 56.8543V6.98989C253.607 6.13837 253.463 5.58674 253.183 5.23383C252.902 4.88091 252.48 4.75139 251.969 4.75139H250.544V1.89538L262.333 0.969107ZM199.453 57.1658C197.006 57.1658 196.78 55.5572 196.78 49.8198C196.78 39.7253 197.467 38.3482 202.812 35.3631V51.5791C202.812 54.7951 202.278 57.1658 199.453 57.1658ZM54.5854 34.7555C54.8123 21.1393 55.2727 19.6857 58.0214 19.6857C61.0759 19.6857 60.7683 21.445 60.7683 34.7555H54.5854ZM58.0214 62.4437C65.505 62.4437 69.3226 59.2289 68.4041 47.6042H65.1992C65.4261 57.3936 63.8227 58.3131 60.2357 58.3131C54.967 58.3131 54.5848 55.5572 54.5848 39.343C54.5848 39.0374 54.5848 38.5785 54.5848 37.9666H69.1673C69.1673 21.5987 66.0364 15.9404 58.0208 15.9404C50.6119 15.9404 44.887 23.8168 44.887 39.4962C44.8876 56.7045 50.1569 62.4437 58.0214 62.4437ZM112.436 62.4437C119.001 62.4437 122.666 58.005 122.666 51.2735C122.666 44.2381 120.225 41.1808 115.183 35.5947C110.375 30.3168 108.542 28.329 108.542 23.97C108.542 21.445 109.382 19.8394 112.283 19.8394C115.183 19.8394 116.865 20.9868 117.397 25.4211L117.932 29.7067H121.292V16.7049H118.543C118.393 18.3098 118.393 19.2268 117.932 18.9959C117.247 18.3864 114.575 15.9398 110.757 15.9398C105.488 15.9398 100.754 19.3034 100.754 26.7229C100.754 33.6829 103.121 36.4358 108.237 42.2515C112.666 47.2979 114.878 49.516 114.878 53.6441C114.878 56.9336 113.964 58.7695 110.528 58.7695C107.624 58.7695 105.715 57.393 104.801 51.5785L104.19 47.6029H100.831V61.678H103.656C103.961 60.2225 104.725 58.8454 105.412 59.3043C106.403 60.4528 108.694 62.4437 112.436 62.4437ZM175.146 62.4437C182.63 62.4437 186.448 59.2289 185.529 47.6042H182.324C182.553 57.3936 180.95 58.3131 177.361 58.3131C172.092 58.3131 171.71 55.5572 171.71 39.343C171.71 39.0374 171.71 38.5785 171.71 37.9666H186.292C186.292 21.5987 183.164 15.9404 175.146 15.9404C167.739 15.9404 162.013 23.8168 162.013 39.4962C162.013 56.7045 167.284 62.4437 175.146 62.4437ZM195.635 62.4437C200.14 62.4437 202.354 59.2289 203.576 56.9342C204.34 60.4522 205.33 62.4437 209.99 62.4437C215.333 62.4437 216.554 59.2289 216.554 52.9587H213.808C213.808 57.4721 213.653 57.9309 212.663 57.9309C211.744 57.9309 211.744 57.5487 211.744 55.0218V27.1823C211.744 18.2314 206.936 15.9404 200.598 15.9404C192.504 15.9404 187.923 21.5987 190.978 27.2589C192.275 29.6289 194.795 30.3174 196.931 28.7125C199.148 27.031 199.53 23.5099 193.879 20.6823C194.642 19.9926 196.857 19.38 198.384 19.38C202.813 19.38 202.813 20.9886 202.813 25.1192C202.813 25.7299 202.813 31.7729 202.813 32.919C191.818 36.6692 188 38.7323 188 50.5905C187.999 59.7662 191.511 62.4437 195.635 62.4437ZM69.1185 61.6792H83.0155V58.6194H82.1735C81.181 58.6194 81.0281 58.3879 81.0281 57.4721V28.1777C81.0281 24.4294 81.639 21.5221 84.9221 21.5221C87.2893 21.5221 87.5204 22.9758 87.5204 26.1115V57.2405C87.5204 58.3879 86.9835 58.6194 86.1439 58.6194H85.3043V61.6792H98.5121V58.6194H97.8273C96.7584 58.6194 96.4532 58.3131 96.4532 57.0892V24.4294C96.4532 18.9212 94.4677 15.9398 89.0486 15.9398C85.5337 15.9398 82.8614 18.0042 80.8759 21.1387V16.167L69.0427 17.0081V20.0679H70.5703C71.5627 20.0679 72.0978 20.5279 72.0978 22.2094V56.8577C72.0978 58.2366 71.7896 58.6194 70.5703 58.6194H69.1192V61.6792H69.1185ZM234.218 52.4214C234.218 59.6902 235.211 62.4437 242.389 62.4437C247.045 62.4437 250.175 60.4522 250.175 53.8003V47.2985H246.894V54.4889C246.894 57.1664 246.513 58.2372 244.985 58.2372C243.458 58.2372 243.152 57.1664 243.152 54.7951V20.0685H250.023V16.7049H243.229V4.84797H240.099C236.586 15.4791 234.982 16.7055 232.081 16.7055H231.164V19.9926H234.219V52.4214H234.218ZM0.970791 61.6792H12.8853V58.6194H11.0526C9.37035 58.6194 8.60906 56.6279 8.60906 53.8744V15.5557L18.228 61.6002H22.8093L32.43 15.4032V54.6389C32.43 57.393 31.972 58.6188 30.4445 58.6188H28.3067V61.6786H45.485V58.6188H44.1867C42.6598 58.6188 42.2037 57.393 42.2037 54.6389V8.82539C42.2037 6.0725 42.6598 4.84797 44.1867 4.84797H45.485V1.78818H31.1324L23.6489 39.5752L15.7079 1.78818H0.970791V4.84797H2.19503C3.72256 4.84797 4.63858 6.68385 4.63858 9.51516V53.8751C4.63858 56.6286 3.72256 58.62 2.19503 58.62H0.970791V61.6792ZM124.042 61.6792H141.374V58.6194H139.617C138.012 58.6194 137.556 58.0816 137.556 55.4046V33.2265H149.162V55.4046C149.162 58.0816 148.625 58.6194 147.098 58.6194H145.344V61.6792H162.599V58.6194H161.071C159.467 58.6194 159.012 58.0816 159.012 55.4046V8.06152C159.012 5.30555 159.467 4.84797 161.071 4.84797H162.599V1.78818H145.344V4.84797H147.098C148.625 4.84797 149.162 5.30555 149.162 8.06152V29.6289H137.556V8.06152C137.556 5.30555 138.012 4.84797 139.617 4.84797H141.374V1.78818H124.042V4.84797H125.644C127.247 4.84797 127.705 5.30555 127.705 8.06152V56.9348C127.705 58.2372 127.247 58.62 125.644 58.62H124.042V61.6792ZM217.575 61.6792H231.698V58.6194H229.866C228.873 58.6194 228.492 58.2372 228.492 57.0108V0.871169L216.506 1.78756V4.84735H218.184C219.178 4.84735 219.56 5.15302 219.56 6.37632V57.1658C219.56 58.3125 219.405 58.6194 218.338 58.6194H217.575V61.6792H217.575ZM251.513 61.6792H264.418V58.6194H263.576C262.586 58.6194 262.431 58.3879 262.431 57.4721V28.1777C262.431 24.4294 263.042 21.5221 266.327 21.5221C268.692 21.5221 268.921 22.9758 268.921 26.1115V57.2405C268.921 58.3879 268.387 58.6194 267.547 58.6194H266.71V61.6792H279.915V58.6194H279.228C278.161 58.6194 277.855 58.3131 277.855 57.0892V24.4294C277.855 18.9212 275.87 15.9398 270.448 15.9398C266.936 15.9398 264.418 18.0042 262.431 21.1387V0.871169L250.442 1.78756V4.84735H251.972C252.962 4.84735 253.499 5.30493 253.499 6.9889V56.8577C253.499 58.2366 253.194 58.6194 251.972 58.6194H251.514V61.6792H251.513ZM98.7433 18.2314C106.377 12.4978 107.904 8.21344 105.386 4.31197C104.012 2.17043 100.881 0.794597 98.5904 2.70643C95.8392 5.00112 96.529 9.05325 101.645 11.2714C100.726 12.3434 98.5904 14.4849 96.8342 16.167L98.7433 18.2314ZM171.71 34.7555C171.941 21.1393 172.397 19.6857 175.146 19.6857C178.2 19.6857 177.894 21.445 177.894 34.7555H171.71ZM89.0563 15.8474C85.6072 15.8474 82.9627 17.8274 80.9848 20.8261V16.1754V16.0597L80.8693 16.079L69.0414 16.9087H68.945V17.0052V20.0735V20.17H69.0414H70.5632C71.0434 20.17 71.3871 20.2789 71.6227 20.5752C71.8583 20.8716 72.008 21.3853 72.008 22.2155V56.8543C72.008 57.5352 71.9208 57.9503 71.719 58.1858C71.5172 58.4214 71.1629 58.5139 70.5632 58.5139H69.1184H69.0221V58.6104V61.6787V61.7751H69.1184H83.0268H83.1231V61.6787V58.6104V58.5139H83.0268H82.1792C81.6905 58.5139 81.4232 58.4589 81.2931 58.3209C81.1629 58.183 81.1197 57.9255 81.1197 57.4718V28.1784C81.1197 26.3096 81.2814 24.6583 81.8324 23.4891C82.3834 22.3199 83.302 21.6173 84.9146 21.6173C85.4964 21.6173 85.9472 21.7124 86.2823 21.8875C86.6175 22.0625 86.8451 22.3166 87.0144 22.6787C87.3529 23.4027 87.4189 24.5469 87.4189 26.1136V57.2403C87.4189 57.7986 87.3014 58.1056 87.0914 58.2823C86.8814 58.459 86.5584 58.5139 86.1475 58.5139H85.2999H85.2036V58.6104V61.6787V61.7751H85.2999H98.5148H98.6111V61.6787V58.6104V58.5139H98.5148H97.8213C97.2962 58.5139 97.0007 58.4418 96.8196 58.2437C96.6384 58.0457 96.5499 57.69 96.5499 57.0859V24.4347C96.5499 21.6697 96.05 19.5077 94.8547 18.0473C93.6594 16.5869 91.7839 15.8474 89.0563 15.8474ZM89.0563 16.0404C91.7478 16.0404 93.5483 16.7746 94.7006 18.1824C95.8528 19.5902 96.3572 21.6934 96.3572 24.4347V57.0859C96.3572 57.7063 96.4268 58.1179 96.6655 58.3788C96.9041 58.6397 97.2775 58.7069 97.8213 58.7069H98.4185V61.5822H85.3962V58.7069H86.1475C86.5762 58.7069 86.9399 58.6614 87.207 58.4367C87.4741 58.212 87.6115 57.8293 87.6115 57.2403V26.1136C87.6115 24.5421 87.5746 23.3875 87.207 22.6015C87.0232 22.2084 86.7521 21.9089 86.3787 21.7138C86.0052 21.5187 85.5164 21.4243 84.9146 21.4243C83.2441 21.4243 82.2343 22.1721 81.6591 23.3927C81.0838 24.6132 80.927 26.2989 80.927 28.1784V57.4718C80.927 57.9364 80.9638 58.2498 81.1582 58.456C81.3527 58.6622 81.6754 58.7069 82.1792 58.7069H82.9112V61.5822H69.2147V58.7069H70.5632C71.1834 58.7069 71.6162 58.6209 71.8731 58.3209C72.1301 58.021 72.2006 57.5499 72.2006 56.8543V22.2155C72.2006 21.3643 72.0573 20.793 71.7768 20.4402C71.4963 20.0874 71.0736 19.977 70.5632 19.977H69.1377V17.1017L80.7729 16.2719V21.1349V21.4822L80.9656 21.1928C82.9396 18.0749 85.5798 16.0404 89.0563 16.0404ZM58.0225 15.8474C54.2833 15.8474 50.9732 17.8392 48.6026 21.791C46.232 25.7428 44.7884 31.635 44.7884 39.4867C44.7884 48.1012 46.1124 53.8607 48.4292 57.4718C50.7461 61.0829 54.0661 62.547 58.0225 62.547C61.7781 62.547 64.6413 61.7275 66.4408 59.4402C68.2402 57.1528 68.9621 53.4163 68.502 47.5916V47.4951H68.4057H65.2079H65.0923L65.1116 47.6109C65.2261 52.5008 64.8727 55.1656 64.0713 56.5842C63.6706 57.2934 63.1627 57.6835 62.5302 57.9157C61.8978 58.1478 61.1303 58.2051 60.2379 58.2051C58.9292 58.2051 57.9467 58.0446 57.1942 57.549C56.4418 57.0534 55.9109 56.2305 55.5375 54.886C54.7907 52.1969 54.6899 47.4395 54.6899 39.3323C54.6899 39.0499 54.6899 38.6063 54.6899 38.0587H69.1762H69.2725V37.9622C69.2725 29.7719 68.49 24.2568 66.6912 20.7682C64.8924 17.2796 62.0534 15.8474 58.0225 15.8474ZM58.0225 16.0404C62.0072 16.0404 64.7473 17.4309 66.5178 20.8647C68.2808 24.2838 69.0732 29.7459 69.0799 37.8657H54.5936H54.4973V37.9622C54.4973 38.5723 54.4973 39.0285 54.4973 39.3323C54.4973 47.4411 54.5834 52.1826 55.3449 54.9246C55.7256 56.2956 56.2776 57.1758 57.0786 57.7034C57.8797 58.231 58.9121 58.4174 60.2379 58.4174C61.1387 58.4174 61.9179 58.3546 62.588 58.1086C63.2582 57.8627 63.8243 57.4248 64.2447 56.6806C65.0772 55.2072 65.409 52.5161 65.3042 47.7074H68.3093C68.7505 53.4483 68.0267 57.1125 66.2867 59.3244C64.5359 61.5498 61.75 62.3348 58.0225 62.3348C54.1138 62.3348 50.8671 60.9348 48.5834 57.3753C46.2996 53.8159 44.981 48.0811 44.981 39.4867C44.981 31.659 46.4127 25.795 48.7567 21.8875C51.1008 17.98 54.3529 16.0404 58.0225 16.0404ZM58.0225 19.5911C57.3267 19.5911 56.7467 19.6853 56.2888 20.0542C55.8309 20.4232 55.5137 21.0374 55.2678 22.0804C54.7761 24.1665 54.612 27.9506 54.4973 34.7588V34.8553H54.5936H60.7772H60.8736V34.7588C60.8736 28.1055 60.95 24.3377 60.6424 22.2155C60.4886 21.1544 60.2408 20.4899 59.8141 20.0928C59.3874 19.6957 58.7956 19.5911 58.0225 19.5911ZM58.0225 19.784C58.7767 19.784 59.3045 19.8985 59.6792 20.2472C60.0539 20.5958 60.2987 21.1926 60.4498 22.2348C60.7501 24.3067 60.6818 28.0825 60.6809 34.6623H54.6899C54.8046 27.9325 54.9815 24.1702 55.4605 22.1383C55.7014 21.1163 56.0154 20.5375 56.4237 20.2086C56.8319 19.8797 57.344 19.784 58.0225 19.784ZM175.146 19.5911C174.45 19.5911 173.87 19.6852 173.412 20.0542C172.954 20.4233 172.637 21.0565 172.391 22.0997C171.899 24.1862 171.736 27.9497 171.62 34.7588L171.601 34.8553H171.717H177.9H177.997V34.7588C177.997 28.1043 178.074 24.3381 177.765 22.2155C177.611 21.1543 177.364 20.4899 176.937 20.0928C176.51 19.6957 175.919 19.5911 175.146 19.5911ZM175.146 19.784C175.9 19.784 176.427 19.8985 176.802 20.2472C177.177 20.5959 177.422 21.1924 177.573 22.2348C177.874 24.307 177.805 28.0813 177.804 34.6623H171.813C171.929 27.9316 172.105 24.1706 172.584 22.1383C172.824 21.1161 173.139 20.5376 173.547 20.2086C173.955 19.8796 174.467 19.784 175.146 19.784ZM100.403 1.7603C99.7491 1.86951 99.1196 2.13978 98.534 2.62868C97.1335 3.79687 96.5912 5.43389 97.07 7.04778C97.5408 8.63492 98.9834 10.1984 101.481 11.3125C100.541 12.3967 98.4818 14.449 96.7618 16.0983L96.704 16.1561L96.7618 16.2333L98.6689 18.2982L98.7267 18.356L98.8037 18.3174C102.627 15.4445 104.937 12.9188 105.97 10.6178C107.003 8.31675 106.742 6.22274 105.469 4.24966C104.769 3.15959 103.633 2.27581 102.368 1.89538C101.735 1.70516 101.056 1.65109 100.403 1.7603ZM100.441 1.95327C101.062 1.84988 101.702 1.90567 102.31 2.08836C103.525 2.45373 104.622 3.31644 105.296 4.36545C106.541 6.29569 106.787 8.29071 105.777 10.5406C104.774 12.7755 102.51 15.2472 98.7459 18.0859L96.9737 16.1561C98.7147 14.4839 100.802 12.3948 101.713 11.3318L101.809 11.2353L101.693 11.1774C99.1539 10.0761 97.7199 8.53135 97.2626 6.98989C96.8054 5.44843 97.299 3.90956 98.6496 2.78306C99.2094 2.31574 99.8204 2.05666 100.441 1.95327ZM228.583 0.756836L228.487 0.776133L216.505 1.68311L216.408 1.70241V1.7796V4.84788V4.94437H216.505H218.181C218.668 4.94437 218.991 5.01443 219.182 5.21453C219.374 5.41463 219.471 5.77093 219.471 6.37237V57.1631C219.471 57.7324 219.423 58.0789 219.279 58.263C219.207 58.3551 219.102 58.4134 218.951 58.456C218.801 58.4986 218.597 58.5139 218.335 58.5139H217.583H217.468V58.6104V61.6787H217.583V61.7751H217.68H231.704H231.8V61.6787V58.6104V58.5139H231.704H229.874C229.39 58.5139 229.085 58.4249 228.891 58.2051C228.697 57.9853 228.583 57.6107 228.583 57.0087V0.87262V0.756836ZM228.39 0.969107V57.0087C228.39 57.6312 228.492 58.0628 228.737 58.3402C228.982 58.6177 229.365 58.7069 229.874 58.7069H231.607V61.5822H217.68V58.7069H218.335C218.607 58.7069 218.83 58.6997 219.009 58.649C219.188 58.5983 219.333 58.5067 219.433 58.3788C219.633 58.1229 219.664 57.7411 219.664 57.1631V6.37237C219.664 5.75052 219.564 5.33801 219.317 5.07945C219.07 4.82089 218.688 4.75139 218.181 4.75139H216.601V1.89538L228.39 0.969107ZM123.943 1.68311V1.7796V4.84788V4.94437H124.039H125.638C126.034 4.94437 126.368 4.9794 126.62 5.06015C126.873 5.1409 127.053 5.27294 127.198 5.48469C127.49 5.90819 127.603 6.6803 127.603 8.05124V56.9315C127.603 57.5698 127.502 57.9534 127.218 58.1858C126.934 58.4183 126.432 58.5139 125.638 58.5139H124.039H123.943V58.6104V61.6787V61.7751H124.039H141.376H141.473V61.6787V58.6104V58.5139H141.376H139.623C139.229 58.5139 138.912 58.4845 138.66 58.3981C138.409 58.3117 138.209 58.1715 138.063 57.9543C137.771 57.5199 137.659 56.7399 137.659 55.407V33.3115H149.063V55.407C149.063 56.7389 148.921 57.5187 148.62 57.9543C148.469 58.172 148.29 58.3117 148.042 58.3981C147.793 58.4845 147.474 58.5139 147.098 58.5139H145.345H145.248V58.6104V61.6787V61.7751H145.345H162.605H162.701V61.6787V58.6104V58.5139H162.605H161.064C160.668 58.5139 160.353 58.4845 160.101 58.3981C159.849 58.3117 159.669 58.1714 159.523 57.9543C159.231 57.5199 159.118 56.7399 159.118 55.407V8.05124C159.118 6.68024 159.232 5.90813 159.523 5.48469C159.668 5.27297 159.849 5.14088 160.101 5.06015C160.353 4.97942 160.668 4.94437 161.064 4.94437H162.605H162.701V4.84788V1.7796V1.68311H162.605H145.345H145.248V1.7796V4.84788V4.94437H145.345H147.098C147.475 4.94437 147.793 4.97942 148.042 5.06015C148.291 5.14088 148.469 5.27236 148.62 5.48469C148.92 5.90936 149.063 6.68119 149.063 8.05124V29.5292H137.659V8.05124C137.659 6.68027 137.772 5.90817 138.063 5.48469C138.208 5.27295 138.389 5.14088 138.641 5.06015C138.893 4.97942 139.228 4.94437 139.623 4.94437H141.376H141.473V4.84788V1.7796V1.68311H141.376H124.039H123.943ZM124.135 1.89538H141.28V4.75139H139.623C139.218 4.75139 138.868 4.77608 138.583 4.86718C138.299 4.95827 138.078 5.12214 137.909 5.36891C137.57 5.86244 137.466 6.66933 137.466 8.05124V29.6257V29.7222H137.562H149.159H149.255V29.6257V8.05124C149.255 6.66842 149.141 5.86125 148.793 5.36891C148.619 5.12274 148.38 4.95827 148.099 4.86718C147.819 4.77608 147.485 4.75139 147.098 4.75139H145.441V1.89538H162.509V4.75139H161.064C160.658 4.75139 160.327 4.77608 160.043 4.86718C159.758 4.95827 159.519 5.12213 159.349 5.36891C159.011 5.86248 158.906 6.66936 158.906 8.05124V55.407C158.906 56.7511 159.012 57.5675 159.349 58.07C159.518 58.3213 159.758 58.4934 160.043 58.5911C160.328 58.6887 160.657 58.7069 161.064 58.7069H162.509V61.5822H145.441V58.7069H147.098C147.485 58.7069 147.818 58.6887 148.099 58.5911C148.381 58.4934 148.619 58.3207 148.793 58.07C149.14 57.5687 149.255 56.752 149.255 55.407V33.215V33.1185H149.159H137.562H137.466V33.215V55.407C137.466 56.7511 137.571 57.5675 137.909 58.07C138.078 58.3213 138.299 58.4934 138.583 58.5911C138.868 58.6887 139.218 58.7069 139.623 58.7069H141.28V61.5822H124.135V58.7069H125.638C126.448 58.7069 126.986 58.6241 127.333 58.3402C127.68 58.0563 127.815 57.5931 127.815 56.9315V8.05124C127.815 6.6693 127.692 5.86242 127.352 5.36891C127.183 5.12216 126.963 4.95825 126.678 4.86718C126.393 4.7761 126.044 4.75139 125.638 4.75139H124.135V1.89538ZM0.867249 1.68311V1.7796V4.84788V4.94437H0.982831H2.19644C2.92094 4.94437 3.50147 5.36903 3.91091 6.1601C4.32035 6.95117 4.54661 8.11285 4.54661 9.51785V53.8825C4.5466 55.2483 4.32126 56.4191 3.91091 57.2403C3.50056 58.0614 2.91728 58.5139 2.19644 58.5139H0.982831H0.867249V58.6104V61.6787V61.7751H0.982831H12.8878H12.9841V61.6787V58.6104V58.5139H12.8878H11.0577C10.2553 58.5139 9.67629 58.0602 9.28547 57.2403C8.89465 56.4203 8.70756 55.2502 8.70756 53.8825V16.5035L18.1275 61.6208L18.1468 61.698H18.2238H22.8086H22.8856L22.9049 61.6208L32.3248 16.4456V54.6351C32.3248 56.0067 32.2133 57.0026 31.9203 57.6262C31.6273 58.2499 31.1938 58.5139 30.4562 58.5139H28.318H28.2024V58.6104V61.6787V61.7751H28.318H45.4819H45.5782V61.6787V58.6104V58.5139H45.4819H44.1912C43.4537 58.5139 43.0004 58.2499 42.7079 57.6262C42.4155 57.0026 42.3034 56.0067 42.3034 54.6351V8.82314C42.3034 7.45215 42.4154 6.47469 42.7079 5.85134C43.0004 5.228 43.454 4.94437 44.1912 4.94437H45.4819H45.5782V4.84788V1.7796V1.68311H45.4819H31.1305H31.0534L31.0341 1.7603L23.6562 39.0814L15.7966 1.7603V1.68311H15.7003H0.982831H0.867249ZM1.07915 1.89538H15.6425L23.5598 39.5446V39.5832H23.7525V39.5446L31.2075 1.89538H45.3856V4.75139H44.1912C43.4016 4.75139 42.8519 5.07864 42.5346 5.75486C42.2172 6.43107 42.1108 7.44125 42.1108 8.82314V54.6351C42.1108 56.0176 42.2173 57.0269 42.5346 57.7034C42.8518 58.3799 43.4013 58.7069 44.1912 58.7069H45.3856V61.5822H28.4143V58.7069H30.4562C31.2462 58.7069 31.7758 58.3799 32.0937 57.7034C32.4115 57.0269 32.5367 56.0176 32.5367 54.6351V15.4228V15.4035H32.4404L32.3441 15.3842V15.4035H32.3248V15.4807L22.7315 61.505H18.3009L8.70756 15.5579V15.5386L8.61124 15.5579H8.51492V15.5772V53.8825C8.51492 55.2684 8.70078 56.4545 9.1121 57.3175C9.52342 58.1804 10.1779 58.7069 11.0577 58.7069H12.7915V61.5822H1.07915V58.7069H2.19644C3.00252 58.7069 3.65366 58.1792 4.08428 57.3175C4.51491 56.4557 4.73924 55.2702 4.73925 53.8825V9.51785C4.73925 8.09153 4.51566 6.89708 4.08428 6.06361C3.6529 5.23015 2.99947 4.75139 2.19644 4.75139H1.07915V1.89538ZM240.026 4.75139L240.006 4.80929C238.25 10.1217 236.976 13.0929 235.788 14.7088C234.599 16.3248 233.525 16.6 232.089 16.6H231.164H231.068V16.6965V19.9963V20.0928H231.164H234.131V52.4159C234.131 56.0526 234.368 58.5815 235.537 60.2121C236.707 61.8427 238.795 62.547 242.395 62.547C244.738 62.547 246.708 62.0279 248.097 60.6752C249.487 59.3225 250.274 57.1471 250.274 53.8053V47.3021V47.2056H250.178H246.903H246.787V47.3021V54.4807C246.787 55.8145 246.694 56.7439 246.421 57.3175C246.148 57.891 245.717 58.1279 244.976 58.1279C244.236 58.1279 243.843 57.8913 243.589 57.356C243.336 56.8208 243.243 55.9721 243.243 54.7895V20.17H250.024H250.12V20.0735V16.6965V16.6H250.024H243.32V4.84788V4.75139H243.223H240.103H240.026ZM240.18 4.94437H243.127V16.6965V16.793H243.223H249.927V19.977H243.146H243.05V20.0735V54.7895C243.05 55.9806 243.135 56.8602 243.416 57.4525C243.697 58.0448 244.19 58.3209 244.976 58.3209C245.763 58.3209 246.295 58.0438 246.595 57.4139C246.894 56.7841 246.999 55.8239 246.999 54.4807V47.3986H250.081V53.8053C250.081 57.1161 249.302 59.2355 247.962 60.5401C246.622 61.8447 244.71 62.3348 242.395 62.3348C238.82 62.3348 236.812 61.6585 235.691 60.0963C234.571 58.534 234.324 56.0437 234.324 52.4159V19.9963V19.8998H234.227H231.261V16.793H232.089C233.552 16.793 234.725 16.4784 235.942 14.8246C237.151 13.1805 238.437 10.2047 240.18 4.94437ZM200.593 15.8474C196.523 15.8474 193.337 17.267 191.539 19.4174C189.741 21.5678 189.341 24.4497 190.884 27.31C191.544 28.5151 192.531 29.2926 193.619 29.5678C194.708 29.843 195.902 29.6136 196.991 28.7959C198.123 27.9356 198.798 26.5942 198.455 25.1101C198.119 23.6574 196.8 22.0917 194.082 20.691C194.463 20.3916 195.099 20.0817 195.873 19.8612C196.705 19.6244 197.627 19.4753 198.378 19.4753C199.479 19.4753 200.314 19.5747 200.92 19.784C201.527 19.9935 201.907 20.3094 202.173 20.7489C202.703 21.6279 202.712 23.0448 202.712 25.1101C202.712 25.7203 202.712 31.6781 202.712 32.8677C197.264 34.7267 193.55 36.1609 191.212 38.6376C188.86 41.1286 187.898 44.6451 187.898 50.5827C187.898 55.1849 188.778 58.1772 190.191 60.0191C191.603 61.8609 193.559 62.547 195.642 62.547C197.918 62.547 199.617 61.7196 200.901 60.6173C202.123 59.5685 202.933 58.28 203.54 57.1631C203.912 58.817 204.348 60.163 205.255 61.0804C206.204 62.0407 207.651 62.547 209.994 62.547C212.685 62.547 214.377 61.7128 215.368 60.0963C216.359 58.4797 216.659 56.0987 216.659 52.9562V52.8598H216.563H213.808H213.712V52.9562C213.711 55.2115 213.676 56.4494 213.519 57.1052C213.44 57.4331 213.339 57.6088 213.211 57.7034C213.083 57.798 212.911 57.8385 212.671 57.8385C212.448 57.8385 212.294 57.8027 212.19 57.742C212.086 57.6813 212.012 57.5857 211.958 57.3946C211.852 57.0125 211.843 56.2833 211.843 55.0211V27.1749C211.843 22.6831 210.627 19.8387 208.607 18.1245C206.586 16.4103 203.774 15.8474 200.593 15.8474ZM200.593 16.0404C203.75 16.0404 206.523 16.6089 208.491 18.2789C210.459 19.9488 211.65 22.7184 211.65 27.1749V55.0211C211.65 56.2833 211.643 57.0124 211.766 57.4525C211.827 57.6726 211.939 57.8258 212.093 57.9157C212.248 58.0055 212.435 58.0315 212.671 58.0315C212.926 58.0315 213.147 57.9902 213.326 57.8578C213.506 57.7253 213.628 57.514 213.712 57.1631C213.876 56.4773 213.902 55.2134 213.904 53.0527H216.466C216.459 56.128 216.139 58.4603 215.195 59.9998C214.24 61.5574 212.646 62.3348 209.994 62.3348C207.679 62.3348 206.293 61.8591 205.39 60.9454C204.487 60.0316 204.056 58.6663 203.675 56.9122L203.617 56.642L203.482 56.8929C202.874 58.0353 202.021 59.4047 200.766 60.4822C199.511 61.5598 197.871 62.3348 195.642 62.3348C193.601 62.3348 191.719 61.6948 190.345 59.9033C188.971 58.1118 188.109 55.1598 188.11 50.5827C188.11 44.6663 189.059 41.216 191.366 38.7727C193.672 36.3293 197.351 34.8759 202.847 33.0028L202.905 32.9835V32.9063C202.905 31.7589 202.905 25.7233 202.905 25.1101C202.905 23.0448 202.923 21.6092 202.346 20.6524C202.057 20.1741 201.618 19.8312 200.978 19.6104C200.339 19.3895 199.491 19.2823 198.378 19.2823C197.601 19.2823 196.663 19.427 195.816 19.6683C194.968 19.9095 194.219 20.2491 193.812 20.6138L193.716 20.7103L193.831 20.7682C196.64 22.1762 197.937 23.7447 198.262 25.1487C198.587 26.5528 197.959 27.8179 196.875 28.6415C195.827 29.4288 194.688 29.6352 193.658 29.3748C192.628 29.1145 191.696 28.3785 191.057 27.2135C189.546 24.4137 189.941 21.6282 191.693 19.5332C193.445 17.4382 196.569 16.0404 200.593 16.0404ZM175.146 15.8474C171.409 15.8474 168.097 17.8392 165.726 21.791C163.355 25.7428 161.911 31.635 161.911 39.4867C161.912 48.1012 163.235 53.8607 165.552 57.4718C167.87 61.0829 171.191 62.547 175.146 62.547C178.901 62.547 181.764 61.7275 183.564 59.4402C185.363 57.1528 186.085 53.4163 185.625 47.5916V47.4951H185.529H182.331H182.235V47.6109C182.349 52.5008 181.996 55.1656 181.194 56.5842C180.794 57.2934 180.286 57.6835 179.653 57.9157C179.021 58.1478 178.254 58.2051 177.361 58.2051C176.052 58.2051 175.07 58.0446 174.317 57.549C173.565 57.0534 173.034 56.2305 172.661 54.886C171.914 52.1969 171.813 47.4395 171.813 39.3323C171.813 39.0499 171.813 38.6063 171.813 38.0587H186.299H186.396V37.9622C186.396 29.7719 185.613 24.2568 183.814 20.7682C182.016 17.2796 179.177 15.8474 175.146 15.8474ZM175.146 16.0404C179.131 16.0404 181.871 17.4309 183.641 20.8647C185.403 24.2838 186.196 29.7459 186.203 37.8657H171.717H171.62V37.9622C171.62 38.5723 171.62 39.0285 171.62 39.3323C171.62 47.4411 171.707 52.1826 172.468 54.9246C172.849 56.2956 173.401 57.1758 174.202 57.7034C175.003 58.231 176.035 58.4174 177.361 58.4174C178.263 58.4174 179.041 58.3546 179.711 58.1086C180.381 57.8627 180.948 57.4248 181.368 56.6806C182.2 55.2071 182.532 52.5161 182.427 47.7074H185.432C185.874 53.4483 185.15 57.1125 183.41 59.3244C181.659 61.5498 178.873 62.3348 175.146 62.3348C171.238 62.3348 167.99 60.9348 165.706 57.3753C163.422 53.8158 162.104 48.0811 162.104 39.4867C162.104 31.659 163.535 25.795 165.88 21.8875C168.224 17.98 171.478 16.0404 175.146 16.0404ZM110.766 15.8474C108.111 15.8474 105.579 16.6832 103.716 18.4718C101.853 20.2605 100.653 22.9823 100.653 26.7118C100.653 30.2039 101.244 32.672 102.483 34.9711C103.722 37.2702 105.608 39.3982 108.166 42.3041C110.381 44.8289 112.036 46.6531 113.136 48.3442C114.235 50.0352 114.773 51.6036 114.773 53.6509C114.773 55.2866 114.543 56.5335 113.906 57.3753C113.27 58.2171 112.236 58.6683 110.535 58.6683C109.099 58.6683 107.925 58.3462 106.991 57.2982C106.057 56.2501 105.347 54.4649 104.891 51.5668L104.294 47.5916L104.275 47.4951H104.198H100.826H100.73V47.6109V61.6787V61.7751H100.826H103.658H103.735L103.754 61.698C103.905 60.9812 104.164 60.2779 104.467 59.8261C104.619 59.6002 104.781 59.4381 104.93 59.363C105.078 59.2879 105.208 59.2849 105.353 59.3823C106.369 60.5467 108.684 62.547 112.442 62.547C115.747 62.547 118.334 61.4127 120.09 59.4402C121.847 57.4676 122.768 54.6607 122.768 51.2774C122.768 47.7473 122.147 45.2008 120.899 42.8444C119.651 40.488 117.775 38.3223 115.255 35.5307C112.851 32.8917 111.201 31.0837 110.15 29.3941C109.099 27.7045 108.647 26.137 108.647 23.9716C108.647 22.7197 108.847 21.7092 109.399 21.0191C109.95 20.329 110.856 19.9384 112.288 19.9384C113.725 19.9384 114.833 20.2203 115.659 21.0384C116.485 21.8565 117.032 23.2313 117.297 25.4382L117.836 29.7222L117.855 29.7994H117.933H121.284H121.4V29.7029V16.6965V16.6H121.284H118.549H118.453V16.6965C118.377 17.501 118.334 18.1217 118.26 18.5104C118.223 18.7048 118.169 18.8449 118.125 18.8964C118.103 18.9221 118.086 18.9324 118.067 18.935C118.052 18.9371 118.023 18.9286 117.99 18.9157C117.989 18.9141 117.973 18.9173 117.971 18.9157C117.28 18.2977 114.616 15.8474 110.766 15.8474ZM110.766 16.0404C114.542 16.0404 117.188 18.456 117.875 19.07L117.894 19.0893C117.963 19.1241 118.036 19.1377 118.106 19.1279C118.176 19.1182 118.234 19.0845 118.279 19.0315C118.37 18.9254 118.413 18.7562 118.453 18.549C118.528 18.1519 118.576 17.5469 118.645 16.793H121.188V29.6064H118.01L117.489 25.3996C117.222 23.1703 116.667 21.7679 115.794 20.9033C114.921 20.0387 113.751 19.7455 112.288 19.7455C110.819 19.7455 109.839 20.1595 109.245 20.9033C108.65 21.6471 108.455 22.6978 108.455 23.9716C108.455 26.1646 108.91 27.776 109.977 29.4906C111.044 31.2052 112.716 33.0269 115.12 35.6658C117.639 38.4559 119.492 40.6126 120.726 42.9409C121.959 45.2692 122.575 47.7702 122.575 51.2774C122.575 54.6249 121.653 57.3958 119.936 59.3244C118.219 61.253 115.703 62.3348 112.442 62.3348C108.735 62.3348 106.472 60.3812 105.488 59.2472L105.469 59.2279C105.272 59.0958 105.049 59.0899 104.853 59.1893C104.656 59.2887 104.476 59.4678 104.313 59.7103C104.001 60.1755 103.758 60.8776 103.6 61.5822H100.923V47.7074H104.12L104.698 51.5861C105.157 54.5026 105.862 56.3202 106.837 57.4139C107.812 58.5077 109.068 58.8612 110.535 58.8612C112.271 58.8612 113.4 58.3896 114.08 57.4911C114.759 56.5926 114.985 55.3048 114.985 53.6509C114.985 51.5684 114.423 49.9412 113.309 48.2284C112.196 46.5155 110.534 44.7117 108.32 42.1883C105.762 39.2827 103.88 37.1456 102.656 34.8746C101.433 32.6036 100.846 30.1816 100.846 26.7118C100.846 23.0243 102.03 20.3748 103.851 18.6262C105.672 16.8776 108.153 16.0404 110.766 16.0404ZM202.905 35.2027L202.77 35.2798C200.093 36.7746 198.555 37.8859 197.703 39.8919C196.852 41.8979 196.682 44.76 196.682 49.8108C196.682 52.6805 196.735 54.5312 197.106 55.6772C197.292 56.2502 197.567 56.6574 197.954 56.9122C198.341 57.167 198.835 57.2596 199.456 57.2596C200.896 57.2596 201.788 56.64 202.288 55.6193C202.788 54.5986 202.905 53.1984 202.905 51.5861V35.357V35.2027ZM202.712 35.55V51.5861C202.712 53.1874 202.589 54.5741 202.115 55.5421C201.641 56.5101 200.841 57.0666 199.456 57.0666C198.856 57.0666 198.412 56.9643 198.069 56.7385C197.726 56.5128 197.476 56.1651 197.299 55.6193C196.945 54.5277 196.875 52.6778 196.875 49.8108C196.875 44.7645 197.048 41.9209 197.877 39.9691C198.685 38.064 200.162 36.9858 202.712 35.55Z" fill="#160F29"/>
</svg>
