<svg width="32" height="80" viewBox="0 0 32 80" fill="none" xmlns="http://www.w3.org/2000/svg">
<path d="M0 40H32" stroke="#160F29"/>
<path d="M15.977 27.192C15.401 27.192 14.8783 27.1067 14.409 26.936C13.9397 26.7653 13.545 26.5307 13.225 26.232C12.905 25.9333 12.6597 25.608 12.489 25.256L13.849 24.632C13.9557 24.7813 14.089 24.952 14.249 25.144C14.409 25.3253 14.6223 25.48 14.889 25.608C15.1557 25.736 15.4863 25.8 15.881 25.8C16.553 25.8 17.0863 25.608 17.481 25.224C17.8863 24.84 18.089 24.3547 18.089 23.768C18.089 23.3307 17.9717 22.9627 17.737 22.664C17.5023 22.3547 17.1557 22.12 16.697 21.96C16.249 21.8 15.6997 21.72 15.049 21.72H14.649V20.536H15.017C15.6783 20.536 16.2863 20.6107 16.841 20.76C17.4063 20.9093 17.9023 21.1333 18.329 21.432C18.7557 21.72 19.0863 22.072 19.321 22.488C19.5557 22.904 19.673 23.3787 19.673 23.912C19.673 24.5733 19.5023 25.1547 19.161 25.656C18.8303 26.1467 18.3823 26.5253 17.817 26.792C17.2623 27.0587 16.649 27.192 15.977 27.192ZM14.649 21.528V20.392H15.049C15.9237 20.392 16.6063 20.2427 17.097 19.944C17.5877 19.6453 17.833 19.224 17.833 18.68C17.833 18.3707 17.7477 18.0933 17.577 17.848C17.417 17.592 17.1877 17.3893 16.889 17.24C16.601 17.08 16.2543 17 15.849 17C15.593 17 15.3423 17.0427 15.097 17.128C14.8623 17.2027 14.6437 17.32 14.441 17.48C14.2383 17.6293 14.0623 17.8267 13.913 18.072L12.601 17.48C12.7823 17.0853 13.0383 16.7493 13.369 16.472C13.6997 16.1947 14.0837 15.9813 14.521 15.832C14.9583 15.6827 15.4223 15.608 15.913 15.608C16.585 15.608 17.1823 15.736 17.705 15.992C18.2277 16.248 18.6383 16.6 18.937 17.048C19.2463 17.496 19.401 18.0027 19.401 18.568C19.401 19.048 19.2837 19.4747 19.049 19.848C18.825 20.2107 18.5103 20.52 18.105 20.776C17.6997 21.0213 17.2303 21.208 16.697 21.336C16.1743 21.464 15.609 21.528 15.001 21.528H14.649Z" fill="#160F29"/>
<rect x="0.5" y="0.5" width="31" height="79" rx="15.5" stroke="#160F29"/>
</svg>
