<svg width="32" height="80" viewBox="0 0 32 80" fill="none" xmlns="http://www.w3.org/2000/svg">
<path d="M0 40H32" stroke="#160F29"/>
<path d="M16.0319 27L16.0479 16.648L16.1919 15.8H17.5839L17.5679 27H16.0319ZM13.5679 18.856V17.432C13.8025 17.4427 14.0745 17.368 14.3839 17.208C14.7039 17.048 15.0239 16.84 15.3439 16.584C15.6639 16.328 15.9465 16.0613 16.1919 15.784L17.1679 16.84C16.8052 17.224 16.4265 17.5707 16.0319 17.88C15.6372 18.1893 15.2319 18.4347 14.8159 18.616C14.4105 18.7973 13.9945 18.8773 13.5679 18.856Z" fill="#160F29"/>
<rect x="0.5" y="0.5" width="31" height="79" rx="15.5" stroke="#160F29"/>
</svg>
