<svg width="32" height="80" viewBox="0 0 32 80" fill="none" xmlns="http://www.w3.org/2000/svg">
<path d="M0 40H32" stroke="#160F29"/>
<path d="M13.9324 26.296L12.3804 25.736C12.3804 25.4053 12.455 25.064 12.6044 24.712C12.7644 24.3493 12.9884 23.992 13.2764 23.64C13.575 23.288 13.927 22.9627 14.3324 22.664L16.4924 21.064C16.7484 20.8827 16.9777 20.6747 17.1804 20.44C17.3937 20.1947 17.559 19.944 17.6764 19.688C17.8044 19.4213 17.8684 19.16 17.8684 18.904C17.8684 18.5627 17.783 18.2533 17.6124 17.976C17.4417 17.688 17.2017 17.464 16.8924 17.304C16.583 17.1333 16.215 17.048 15.7884 17.048C15.383 17.048 15.0257 17.128 14.7164 17.288C14.4177 17.4373 14.167 17.64 13.9644 17.896C13.7617 18.152 13.6177 18.424 13.5324 18.712L11.9164 18.408C12.0337 17.9173 12.263 17.4587 12.6044 17.032C12.9457 16.6053 13.383 16.264 13.9164 16.008C14.4497 15.7413 15.0524 15.608 15.7244 15.608C16.4924 15.608 17.1537 15.752 17.7084 16.04C18.2737 16.3173 18.711 16.7067 19.0204 17.208C19.3297 17.6987 19.4844 18.264 19.4844 18.904C19.4844 19.5227 19.3137 20.0933 18.9724 20.616C18.6417 21.1387 18.1617 21.6453 17.5324 22.136L15.5324 23.64C15.223 23.864 14.9457 24.1093 14.7004 24.376C14.455 24.6427 14.263 24.936 14.1244 25.256C13.9964 25.5653 13.9324 25.912 13.9324 26.296ZM12.3804 27V25.736L13.5644 25.592H19.6284V27H12.3804Z" fill="#160F29"/>
<rect x="0.5" y="0.5" width="31" height="79" rx="15.5" stroke="#160F29"/>
</svg>
