<svg width="120" height="25" viewBox="0 0 120 25" fill="none" xmlns="http://www.w3.org/2000/svg">
<path d="M11.0554 3.21739C11.3667 2.32183 12.6333 2.32183 12.9446 3.21739L14.5929 7.95943C14.7302 8.3545 15.0989 8.62237 15.5171 8.6309L20.5364 8.73318C21.4843 8.7525 21.8757 9.95704 21.1202 10.5298L17.1196 13.5629C16.7863 13.8156 16.6455 14.249 16.7666 14.6493L18.2204 19.4546C18.4949 20.3621 17.4703 21.1065 16.692 20.565L12.5712 17.6975C12.2279 17.4586 11.7721 17.4586 11.4288 17.6975L7.30799 20.565C6.52975 21.1065 5.5051 20.3621 5.77965 19.4546L7.23342 14.6493C7.35454 14.249 7.21371 13.8156 6.88042 13.5629L2.87983 10.5298C2.12429 9.95704 2.51567 8.7525 3.4636 8.73318L8.48291 8.6309C8.90108 8.62237 9.26978 8.3545 9.4071 7.95943L11.0554 3.21739Z" fill="#FFE600"/>
<path d="M35.0554 3.21739C35.3667 2.32183 36.6333 2.32183 36.9446 3.21739L38.5929 7.95943C38.7302 8.3545 39.0989 8.62237 39.5171 8.6309L44.5364 8.73318C45.4843 8.7525 45.8757 9.95704 45.1202 10.5298L41.1196 13.5629C40.7863 13.8156 40.6455 14.249 40.7666 14.6493L42.2204 19.4546C42.4949 20.3621 41.4703 21.1065 40.692 20.565L36.5712 17.6975C36.2279 17.4586 35.7721 17.4586 35.4288 17.6975L31.308 20.565C30.5297 21.1065 29.5051 20.3621 29.7796 19.4546L31.2334 14.6493C31.3545 14.249 31.2137 13.8156 30.8804 13.5629L26.8798 10.5298C26.1243 9.95704 26.5157 8.7525 27.4636 8.73318L32.4829 8.6309C32.9011 8.62237 33.2698 8.3545 33.4071 7.95943L35.0554 3.21739Z" fill="#FFE600"/>
<path d="M59.0554 3.21739C59.3667 2.32183 60.6333 2.32183 60.9446 3.21739L62.5929 7.95943C62.7302 8.3545 63.0989 8.62237 63.5171 8.6309L68.5364 8.73318C69.4843 8.7525 69.8757 9.95704 69.1202 10.5298L65.1196 13.5629C64.7863 13.8156 64.6455 14.249 64.7666 14.6493L66.2204 19.4546C66.4949 20.3621 65.4703 21.1065 64.692 20.565L60.5712 17.6975C60.2279 17.4586 59.7721 17.4586 59.4288 17.6975L55.308 20.565C54.5297 21.1065 53.5051 20.3621 53.7796 19.4546L55.2334 14.6493C55.3545 14.249 55.2137 13.8156 54.8804 13.5629L50.8798 10.5298C50.1243 9.95704 50.5157 8.7525 51.4636 8.73318L56.4829 8.6309C56.9011 8.62237 57.2698 8.3545 57.4071 7.95943L59.0554 3.21739Z" fill="#FFE600"/>
<path d="M83.0554 3.21739C83.3667 2.32183 84.6333 2.32183 84.9446 3.21739L86.5929 7.95943C86.7302 8.3545 87.0989 8.62237 87.5171 8.6309L92.5364 8.73318C93.4843 8.7525 93.8757 9.95704 93.1202 10.5298L89.1196 13.5629C88.7863 13.8156 88.6455 14.249 88.7666 14.6493L90.2204 19.4546C90.4949 20.3621 89.4703 21.1065 88.692 20.565L84.5712 17.6975C84.2279 17.4586 83.7721 17.4586 83.4288 17.6975L79.308 20.565C78.5297 21.1065 77.5051 20.3621 77.7796 19.4546L79.2334 14.6493C79.3545 14.249 79.2137 13.8156 78.8804 13.5629L74.8798 10.5298C74.1243 9.95704 74.5157 8.7525 75.4636 8.73318L80.4829 8.6309C80.9011 8.62237 81.2698 8.3545 81.4071 7.95943L83.0554 3.21739Z" fill="#FFE600"/>
<path d="M107.055 3.21739C107.367 2.32183 108.633 2.32183 108.945 3.21739L110.593 7.95943C110.73 8.3545 111.099 8.62237 111.517 8.6309L116.536 8.73318C117.484 8.7525 117.876 9.95704 117.12 10.5298L113.12 13.5629C112.786 13.8156 112.645 14.249 112.767 14.6493L114.22 19.4546C114.495 20.3621 113.47 21.1065 112.692 20.565L108.571 17.6975C108.228 17.4586 107.772 17.4586 107.429 17.6975L103.308 20.565C102.53 21.1065 101.505 20.3621 101.78 19.4546L103.233 14.6493C103.355 14.249 103.214 13.8156 102.88 13.5629L98.8798 10.5298C98.1243 9.95704 98.5157 8.7525 99.4636 8.73318L104.483 8.6309C104.901 8.62237 105.27 8.3545 105.407 7.95943L107.055 3.21739Z" fill="#FFE600"/>
</svg>
