<svg width="253" height="43" viewBox="0 0 253 43" fill="none" xmlns="http://www.w3.org/2000/svg">
<g clip-path="url(#clip0_4308_614)">
<path d="M-0.000159315 26.4512L1.83875 22.2528C4.12637 24.1255 7.76011 25.4556 11.2737 25.4556C15.7247 25.4556 17.6037 23.8318 17.6037 21.6693C17.6037 15.3901 0.61281 19.5069 0.61281 8.69058C0.61281 3.9944 4.28662 0 12.131 0C15.5604 0 19.1541 0.913939 21.6461 2.57861L19.9714 6.77702C17.3993 5.23883 14.5789 4.48809 12.087 4.48809C7.67598 4.48809 5.88114 6.23437 5.88114 8.44169C5.88114 14.6393 22.8279 10.6041 22.8279 21.294C22.8279 25.9534 19.1101 29.9437 11.2697 29.9437C6.81862 29.9437 2.36758 28.5279 -0.00416565 26.4512H-0.000159315Z" fill="#160F29"/>
<path d="M0.340538 37.243H22.4916V42.6981H0.340538V37.243Z" fill="#160F29"/>
<path d="M46.1089 17.3444L41.5777 22.0855V29.5316H36.2693V0.416168H41.5777V15.3493L55.7041 0.416168H61.6655L49.6585 13.4357L62.4027 29.5316H56.1928L46.1049 17.3444H46.1089Z" fill="#160F29"/>
<path d="M99.6095 0.416168V29.5316H95.2386L79.4736 9.81668V29.5316H74.2053V0.416168H78.5762L94.3412 20.1311V0.416168H99.6095Z" fill="#160F29"/>
<path d="M137.67 24.9538V29.5276H113.287V25.9085L130.114 4.98586H113.572V0.416168H137.137V4.0352L120.31 24.9579H137.666L137.67 24.9538Z" fill="#160F29"/>
<path d="M172.136 24.9987V29.5316H150.694V0.416168H171.563V4.94914H156.003V12.5177H169.808V16.9691H156.003V24.9987H172.136V24.9987Z" fill="#160F29"/>
<path d="M204.932 29.5316L199.091 21.0043C198.722 21.0451 198.358 21.0451 197.989 21.0451H191.535V29.5316H186.226V0.416168H197.989C205.505 0.416168 210.16 4.32489 210.16 10.7714C210.16 15.182 207.957 18.4257 204.075 19.9639L210.649 29.5316H204.932V29.5316ZM197.745 4.98994H191.535V16.5937H197.745C202.4 16.5937 204.812 14.4313 204.812 10.7714C204.812 7.11159 202.404 4.98994 197.745 4.98994V4.98994Z" fill="#160F29"/>
<path d="M222.207 14.9739C222.207 6.36493 228.742 0 237.604 0C246.466 0 253 6.32005 253 14.9739C253 23.6278 246.466 29.9478 237.604 29.9478C228.742 29.9478 222.207 23.5829 222.207 14.9739ZM247.652 14.9739C247.652 9.02514 243.365 4.74106 237.604 4.74106C231.843 4.74106 227.556 9.02514 227.556 14.9739C227.556 20.9227 231.847 25.2068 237.604 25.2068C243.361 25.2068 247.652 20.9227 247.652 14.9739Z" fill="#160F29"/>
<path d="M53.9413 40.3479V37.0227H55.015V40.3071C55.015 41.5189 55.5518 42.0412 56.4853 42.0412C57.4188 42.0412 57.9476 41.5189 57.9476 40.3071V37.0227H59.0053V40.3479C59.0053 42.0657 58.0558 43 56.4773 43C54.8988 43 53.9373 42.0657 53.9373 40.3479H53.9413Z" fill="#160F29"/>
<path d="M67.3064 37.0227V42.9184H66.421L63.228 38.9281V42.9184H62.1623V37.0227H63.0477L66.2367 41.013V37.0227H67.3024H67.3064Z" fill="#160F29"/>
<path d="M71.5852 37.9407V39.7359H74.3816V40.6621H71.5852V42.9184H70.5115V37.0227H74.7382V37.9407H71.5892H71.5852Z" fill="#160F29"/>
<path d="M77.4264 37.0227H78.5001V42.9184H77.4264V37.0227Z" fill="#160F29"/>
<path d="M81.7132 37.0227H82.7869V41.9922H85.8117V42.9184H81.7092V37.0227H81.7132Z" fill="#160F29"/>
<path d="M88.9526 37.9489H87.0336V37.0227H91.9454V37.9489H90.0263V42.9184H88.9526V37.9489V37.9489Z" fill="#160F29"/>
<path d="M98.7441 42.0004V42.9184H94.4012V37.0227H98.6279V37.9407H95.479V39.4748H98.2754V40.3765H95.479V42.0004H98.7441Z" fill="#160F29"/>
<path d="M105.379 42.9184L104.197 41.1925C104.125 41.2007 104.048 41.2007 103.972 41.2007H102.666V42.9184H101.593V37.0227H103.972C105.495 37.0227 106.436 37.8142 106.436 39.1198C106.436 40.0134 105.988 40.6703 105.202 40.9804L106.532 42.9184H105.375H105.379ZM103.924 37.9489H102.666V40.299H103.924C104.866 40.299 105.355 39.8624 105.355 39.1198C105.355 38.3773 104.866 37.9489 103.924 37.9489Z" fill="#160F29"/>
<path d="M113.628 42.0004V42.9184H109.285V37.0227H113.511V37.9407H110.362V39.4748H113.159V40.3765H110.362V42.0004H113.628Z" fill="#160F29"/>
<path d="M116.472 37.0227H119.004C120.879 37.0227 122.161 38.2018 122.161 39.9685C122.161 41.7352 120.879 42.9143 119.004 42.9143H116.472V37.0186V37.0227ZM118.952 41.9922C120.242 41.9922 121.075 41.1925 121.075 39.9726C121.075 38.7526 120.242 37.9529 118.952 37.9529H117.546V41.9963H118.952V41.9922Z" fill="#160F29"/>
<path d="M132.638 41.5516H129.745L129.176 42.9143H128.066L130.671 37.0186H131.728L134.34 42.9143H133.215L132.638 41.5516V41.5516ZM132.281 40.6948L131.191 38.1202L130.11 40.6948H132.285H132.281Z" fill="#160F29"/>
<path d="M141.868 37.0227V42.9184H140.983L137.79 38.9281V42.9184H136.724V37.0227H137.61L140.799 41.013V37.0227H141.864H141.868Z" fill="#160F29"/>
<path d="M145.069 37.0227H147.601C149.476 37.0227 150.758 38.2018 150.758 39.9685C150.758 41.7352 149.476 42.9143 147.601 42.9143H145.069V37.0186V37.0227ZM147.549 41.9922C148.839 41.9922 149.673 41.1925 149.673 39.9726C149.673 38.7526 148.839 37.9529 147.549 37.9529H146.143V41.9963H147.549V41.9922Z" fill="#160F29"/>
<path d="M157.068 39.9685C157.068 38.21 158.39 36.937 160.169 36.937C161.111 36.937 161.92 37.2838 162.461 37.9244L161.768 38.5894C161.347 38.1284 160.826 37.8999 160.221 37.8999C159.023 37.8999 158.154 38.7567 158.154 39.9726C158.154 41.1884 159.023 42.0453 160.221 42.0453C160.826 42.0453 161.347 41.8168 161.768 41.3476L162.461 42.0208C161.924 42.6614 161.115 43.0041 160.161 43.0041C158.39 43.0041 157.068 41.7311 157.068 39.9726V39.9685Z" fill="#160F29"/>
<path d="M164.604 39.9685C164.604 38.2263 165.926 36.937 167.721 36.937C169.516 36.937 170.838 38.2181 170.838 39.9685C170.838 41.7189 169.516 43 167.721 43C165.926 43 164.604 41.7107 164.604 39.9685V39.9685ZM169.756 39.9685C169.756 38.7649 168.887 37.8958 167.721 37.8958C166.555 37.8958 165.686 38.7649 165.686 39.9685C165.686 41.1721 166.555 42.0412 167.721 42.0412C168.887 42.0412 169.756 41.1721 169.756 39.9685Z" fill="#160F29"/>
<path d="M178.771 37.0227V42.9184H177.885L174.692 38.9281V42.9184H173.626V37.0227H174.512L177.701 41.013V37.0227H178.767H178.771Z" fill="#160F29"/>
<path d="M183.045 37.9407V39.7359H185.842V40.6621H183.045V42.9184H181.972V37.0227H186.198V37.9407H183.049H183.045Z" fill="#160F29"/>
<path d="M188.887 37.0227H189.96V42.9184H188.887V37.0227Z" fill="#160F29"/>
<path d="M193.173 37.0227H195.701C197.58 37.0227 198.862 38.2018 198.862 39.9685C198.862 41.7352 197.58 42.9143 195.701 42.9143H193.173V37.0186V37.0227ZM195.653 41.9922C196.943 41.9922 197.777 41.1925 197.777 39.9726C197.777 38.7526 196.943 37.9529 195.653 37.9529H194.247V41.9963H195.653V41.9922Z" fill="#160F29"/>
<path d="M205.994 42.0004V42.9184H201.651V37.0227H205.878V37.9407H202.729V39.4748H205.525V40.3765H202.729V42.0004H205.994Z" fill="#160F29"/>
<path d="M213.982 37.0227V42.9184H213.097L209.904 38.9281V42.9184H208.838V37.0227H209.724L212.913 41.013V37.0227H213.978H213.982Z" fill="#160F29"/>
<path d="M218.361 37.9489H216.442V37.0227H221.354V37.9489H219.435V42.9184H218.361V37.9489V37.9489Z" fill="#160F29"/>
</g>
<defs>
<clipPath id="clip0_4308_614">
<rect width="253" height="43" fill="white"/>
</clipPath>
</defs>
</svg>
